<svg xmlns="http://www.w3.org/2000/svg" viewBox="0 0 640 640"><path d="M59.5 545.45 Q56.7 536.4 61.05 524.05 Q57.2 525.65 54.4 528.7 L54.3 528.7 Q51.7 531.85 50 536.3 Q48.6 539.95 44.95 541.65 Q41.3 543.25 37.65 541.8 Q33.95 540.4 32.3 536.75 Q30.7 533.1 32.1 529.45 Q35 521.85 39.6 516.5 L39.6 516.4 Q54.2 497.55 86.2 504.65 L86.25 504.65 Q90.45 505.6 95.15 507.05 Q98.9 508.3 100.8 511.8 Q102.65 515.35 101.4 519.1 Q100.2 522.9 96.75 524.75 Q93.15 526.6 89.4 525.4 Q85.6 524.15 82.15 523.4 L82 523.65 Q76.85 533.9 78.05 540.55 L78.05 540.6 Q79.25 544.15 83.35 546.45 Q86.85 548.35 87.9 552.2 Q89 555.95 87.1 559.4 Q85.15 562.95 81.4 564.05 Q77.55 565.1 74.1 563.25 Q62.1 556.6 59.5 545.4 L59.5 545.45 Z M538.45 523.4 Q534.9 521.55 533.7 517.75 Q532.5 514 534.35 510.45 Q536.2 506.95 539.95 505.75 Q544.9 504.2 549.5 503.25 Q574.35 497.8 588.35 509.05 L588.35 509.1 Q596.95 515.45 601.85 527.7 Q603.25 531.35 601.75 535 Q600.15 538.6 596.5 540.15 Q592.75 541.55 589.15 540.05 Q585.5 538.45 584 534.8 Q581.3 528 576.75 524.4 Q575.3 523.45 573.7 522.75 Q575.3 527.6 575.75 531.95 Q578.05 551.4 560.7 560.95 Q557.25 562.8 553.5 561.75 Q549.65 560.65 547.7 557.1 Q545.8 553.65 546.9 549.9 Q547.95 546.05 551.5 544.15 Q557.45 540.8 556.7 534.2 L556.7 534.15 Q555.95 528.9 552.6 522.25 L552.6 522.2 Q549.25 522.95 545.75 524.05 Q541.95 525.25 538.45 523.4 Z" fill="#000000" fill-opacity="0.200"/><path d="M485.35 149.75 L421.35 125.45 M420.05 125.45 L330.45 154.9 M85.95 225.3 L207.65 165.05 L322.75 197.1 L427.15 168 L535.25 212.5 M216.55 126.7 Q182 141.45 147.4 156.15 M262.45 423.7 Q219.95 440.05 194.6 481.3 M385.35 424.95 Q420.5 439.7 446.8 481.3 M221.5 378.9 Q173.1 408.25 98.65 396.8 M424.5 377.6 Q469.05 408.25 543.5 396.8 M327.9 154.9 L219.1 125.45" fill="none" stroke="#000000" stroke-opacity="0.200" stroke-width="15.00" stroke-linecap="round" stroke-linejoin="round"/></svg>