<svg xmlns="http://www.w3.org/2000/svg" viewBox="0 0 640 640"><defs><linearGradient id="natural5d1_g0_1" gradientUnits="userSpaceOnUse" x1="-819.2" x2="819.2" gradientTransform="matrix(0.08356 0.09732 0.10074 -0.08650 667.15 198.00)"><stop offset="0.000" stop-color="#3c1d00"/><stop offset="1.000" stop-color="#3c1d00" stop-opacity="0.000"/></linearGradient><linearGradient id="natural5d1_g0_2" gradientUnits="userSpaceOnUse" x1="-819.2" x2="819.2" gradientTransform="matrix(-0.08356 0.09732 -0.10074 -0.08650 -26.25 198.00)"><stop offset="0.000" stop-color="#3c1d00"/><stop offset="1.000" stop-color="#3c1d00" stop-opacity="0.000"/></linearGradient></defs><path d="M582.25 394 Q613.6 290.75 396.7 336.4 L393.7 329.75 Q390.7 284.45 420.65 250.25 Q450.5 216.2 495.9 213.2 Q541.2 210.25 575.4 240.1 Q609.6 279.5 608.95 332 Q608.25 384.55 582.25 394 Z" fill="url(#natural5d1_g0_1)"/><path d="M31.95 332 Q31.3 279.5 65.5 240.1 Q99.7 210.25 145 213.2 Q190.4 216.2 220.25 250.25 Q250.2 284.45 247.2 329.75 L244.2 339.4 Q27.3 290.75 58.65 394 Q32.65 384.55 31.95 332 Z" fill="url(#natural5d1_g0_2)"/></svg>