<svg xmlns="http://www.w3.org/2000/svg" viewBox="25.50 3.90 102.60 90.54"><path d="M124.1 53.55 Q123.9 58.75 118.9 63.9 Q112.15 70.85 99.75 70.3 Q87.95 69.8 81.05 64.4 Q78.05 62.05 76.85 59.75 Q75.6 62.05 72.55 64.45 Q65.65 69.85 53.85 70.35 Q41.45 70.9 34.7 63.95 Q29.7 58.8 29.5 53.6 Q29.3 48.4 35.1 48.75 Q40.8 48.55 43.5 44.6 Q47.35 37.85 49.95 34.8 Q54.45 29.55 61.6 28.5 Q68.6 27.5 73.35 31 Q75.75 32.75 76.75 34.75 L76.8 38.2 L76.85 34.7 Q77.85 32.7 80.25 30.95 Q85 27.45 92 28.45 Q99.15 29.5 103.65 34.75 Q106.25 37.8 110.1 44.55 Q112.8 48.5 118.5 48.7 Q124.3 48.35 124.1 53.55 Z" fill="#fff"/></svg>