<svg xmlns="http://www.w3.org/2000/svg" viewBox="21.47 16.37 67.56 72.96"><path d="M84 78.65 L84 78.7 Q84 81 82.35 82.65 Q80.7 84.3 78.4 84.3 L32.1 84.3 Q29.8 84.3 28.15 82.65 Q26.5 81 26.5 78.7 L26.5 78.65 Q26.5 76.35 28.15 74.7 Q29.8 73.05 32.1 73.05 L78.4 73.05 Q80.7 73.05 82.35 74.7 Q84 76.35 84 78.65 Z M49.65 27 Q49.65 24.7 51.3 23.05 Q52.95 21.4 55.25 21.4 L55.3 21.4 Q57.6 21.4 59.25 23.05 Q60.9 24.7 60.9 27 L60.9 51.1 L65.75 46.2 Q67.2 45.05 69.2 45.05 Q71.55 45 73.15 46.6 L73.2 46.65 Q74.85 48.25 74.85 50.65 Q74.85 52.6 73.7 54.1 L73.75 54.15 L60.75 67.25 Q59.15 68.85 56.75 68.9 L56.1 68.85 L55.3 68.9 L55.25 68.9 Q53.2 68.9 51.7 67.65 L38.25 54.1 L38.3 54.05 Q37.15 52.55 37.15 50.6 Q37.15 48.2 38.8 46.6 L38.85 46.55 Q40.45 44.95 42.8 45 Q44.8 45 46.25 46.15 L49.65 49.6 L49.65 27 Z" fill="#46db42"/></svg>