<svg xmlns="http://www.w3.org/2000/svg" viewBox="0.00 0.00 110.00 110.00" width="110.0" height="110.0"><g transform="matrix(1.00000 0.00000 0.00000 1.00000 0.00 0.00)"><path d="M82.3 44.1 Q86.65 39.8 86.65 33.7 Q86.65 27.6 82.3 23.25 Q78 18.95 71.9 18.95 Q65.8 18.95 61.45 23.25 Q57.15 27.6 57.15 33.7 L57.35 36.05 L41.8 45.05 L41.55 44.8 Q37.25 40.5 31.15 40.5 Q25.05 40.5 20.7 44.8 Q16.4 49.15 16.4 55.25 Q16.4 61.35 20.7 65.65 Q25.05 70 31.15 70 Q37.25 70 41.55 65.65 L42.1 65.15 L57.35 73.95 L57.15 76.3 Q57.15 82.4 61.45 86.75 Q65.8 91.05 71.9 91.05 Q78 91.05 82.3 86.75 Q86.65 82.4 86.65 76.3 Q86.65 70.2 82.3 65.9 Q78 61.55 71.9 61.55 Q67 61.55 63.25 64.35 L47.1 55 L63.25 45.65 Q67 48.45 71.9 48.45 Q78 48.45 82.3 44.1 Z M93.9 93.9 Q77.85 110 55 110 Q32.2 110 16.1 93.9 Q0 77.8 0 55 Q0 32.2 16.1 16.1 Q32.2 0 55 0 Q77.85 0 93.9 16.1 Q110 32.2 110 55 Q110 77.8 93.9 93.9 Z" fill="#ffffff"/><path d="M86.65 33.7 Q86.65 39.8 82.3 44.1 Q78 48.45 71.9 48.45 Q67 48.45 63.25 45.65 L47.1 55 L63.25 64.35 Q67 61.55 71.9 61.55 Q78 61.55 82.3 65.9 Q86.65 70.2 86.65 76.3 Q86.65 82.4 82.3 86.75 Q78 91.05 71.9 91.05 Q65.8 91.05 61.45 86.75 Q57.15 82.4 57.15 76.3 L57.35 73.95 L42.1 65.15 L41.55 65.65 Q37.25 70 31.15 70 Q25.05 70 20.7 65.65 Q16.4 61.35 16.4 55.25 Q16.4 49.15 20.7 44.8 Q25.05 40.5 31.15 40.5 Q37.25 40.5 41.55 44.8 L41.8 45.05 L57.35 36.05 L57.15 33.7 Q57.15 27.6 61.45 23.25 Q65.8 18.95 71.9 18.95 Q78 18.95 82.3 23.25 Q86.65 27.6 86.65 33.7 Z" fill="#6242db"/></g></svg>