<svg xmlns="http://www.w3.org/2000/svg" viewBox="8.25 8.25 93.50 93.50"><path d="M83.5 83.5 Q71.75 95.3 55 95.3 Q38.3 95.3 26.5 83.5 Q14.7 71.7 14.7 55 Q14.7 38.3 26.5 26.5 Q38.3 14.7 55 14.7 Q71.75 14.7 83.5 26.5 Q95.3 38.3 95.3 55 Q95.3 71.7 83.5 83.5 Z M55 31.3 Q57.3 31.3 58.95 32.95 Q60.6 34.6 60.6 36.9 L60.6 36.95 Q60.6 39.25 58.95 40.9 Q57.3 42.55 55 42.55 L54.95 42.55 Q52.65 42.55 51 40.9 Q49.35 39.25 49.35 36.95 L49.35 36.9 Q49.35 34.6 51 32.95 Q52.65 31.3 54.95 31.3 L55 31.3 Z M54.95 45.8 L55 45.8 Q57.3 45.8 58.95 47.45 Q60.6 49.1 60.6 51.4 L60.6 72.7 Q60.6 75 58.95 76.65 Q57.3 78.3 55 78.3 L54.95 78.3 Q52.65 78.3 51 76.65 Q49.35 75 49.35 72.7 L49.35 51.4 Q49.35 49.1 51 47.45 Q52.65 45.8 54.95 45.8 Z M86.3 55 Q86.3 42.05 77.15 32.9 Q68.05 23.7 55 23.7 Q42.05 23.7 32.9 32.9 Q23.7 42.05 23.7 55 Q23.7 68 32.9 77.15 Q42.05 86.3 55 86.3 Q68.05 86.3 77.15 77.15 Q86.3 68 86.3 55 Z" fill="#db4242"/></svg>