<svg xmlns="http://www.w3.org/2000/svg" viewBox="0.00 0.00 110.00 110.00" width="110.0" height="110.0"><g transform="matrix(1.00000 0.00000 0.00000 1.00000 0.00 0.00)"><path d="M85.45 50 L84.25 49.1 L81.9 48.55 L81.75 48.55 L79.4 49.1 L78.2 50 L77.7 50.55 L64.65 64.1 Q63.15 65.6 63.15 67.75 Q63.2 69.9 64.75 71.4 Q66.3 72.9 68.45 72.9 Q70.6 72.85 72.1 71.3 L76.95 66.25 L75.55 68.75 L72.05 73 Q69.45 75.6 66.5 77.3 L62.5 79.05 Q53.5 82.2 44.1 78.4 L44.05 78.35 L43.7 78.25 L43.35 78.1 Q40 76.5 36.9 73.8 L36.85 73.8 L36.6 73.55 Q35.3 72.45 33.55 72.45 Q31.6 72.45 30.2 73.85 Q28.8 75.25 28.8 77.25 Q28.8 79.1 30 80.45 L30.2 80.6 L30.3 80.7 Q37.15 86.8 45.3 88.9 L52.3 89.95 L56.3 89.9 L62.1 89.1 Q67.25 87.95 71.75 85.25 Q79.25 81 83.85 73.45 Q85.35 71.1 86.4 68.55 L86.35 68.55 L87.1 66.65 L91.6 71.3 Q93.1 72.85 95.25 72.9 Q97.4 72.9 98.95 71.4 Q100.5 69.9 100.5 67.75 Q100.55 65.6 99.05 64.1 L86 50.55 L85.45 50 Z M93.9 93.9 Q77.85 110 55 110 Q32.2 110 16.1 93.9 Q0 77.8 0 55 Q0 32.2 16.1 16.1 Q32.2 0 55 0 Q77.85 0 93.9 16.1 Q110 32.2 110 55 Q110 77.8 93.9 93.9 Z M81.75 33.05 Q81.75 31.2 80.5 29.85 L80.35 29.65 Q73.45 23.45 65.2 21.4 L59.85 20.45 L58.2 20.35 Q56.2 20.2 54.2 20.35 L48.45 21.2 Q43.3 22.35 38.8 25.05 Q31.25 29.3 26.7 36.85 Q25.2 39.2 24.15 41.75 L24.2 41.75 L23.4 43.65 L18.95 39 Q17.45 37.45 15.3 37.4 Q13.15 37.35 11.6 38.85 Q10.05 40.35 10 42.5 Q10 44.65 11.5 46.2 L24.55 59.7 L25.05 60.3 L26.25 61.15 L28.6 61.75 L28.75 61.75 L31.1 61.15 L32.3 60.3 L32.85 59.7 L45.9 46.2 Q47.4 44.65 47.35 42.5 Q47.3 40.35 45.8 38.85 Q44.25 37.35 42.1 37.4 Q39.95 37.45 38.45 39 L33.55 44.05 Q34.2 42.7 34.95 41.5 L35 41.5 Q36.45 39.3 38.45 37.25 Q41.05 34.65 44.05 33 Q45.95 31.95 48.05 31.2 Q57.05 28.1 66.4 31.9 L66.5 31.9 L66.8 32.05 L67.15 32.15 Q70.55 33.75 73.65 36.45 L73.65 36.5 L73.95 36.75 Q75.25 37.8 76.95 37.8 Q78.95 37.8 80.35 36.4 Q81.75 35 81.75 33.05 Z" fill="#ffffff"/><path d="M84.25 49.1 L85.45 50 L86 50.55 L99.05 64.1 Q100.55 65.6 100.5 67.75 Q100.5 69.9 98.95 71.4 Q97.4 72.9 95.25 72.9 Q93.1 72.85 91.6 71.3 L87.1 66.65 L86.35 68.55 L86.4 68.55 Q85.35 71.1 83.85 73.45 Q79.25 81 71.75 85.25 Q67.25 87.95 62.1 89.1 L56.3 89.9 L52.3 89.95 L45.3 88.9 Q37.15 86.8 30.3 80.7 L30.2 80.6 L30 80.45 Q28.8 79.1 28.8 77.25 Q28.8 75.25 30.2 73.85 Q31.6 72.45 33.55 72.45 Q35.3 72.45 36.6 73.55 L36.85 73.8 L36.9 73.8 Q40 76.5 43.35 78.1 L43.7 78.25 L44.05 78.35 L44.1 78.4 Q53.5 82.2 62.5 79.05 L66.5 77.3 Q69.45 75.6 72.05 73 L75.55 68.75 L76.95 66.25 L72.1 71.3 Q70.6 72.85 68.45 72.9 Q66.3 72.9 64.75 71.4 Q63.2 69.9 63.15 67.75 Q63.15 65.6 64.65 64.1 L77.7 50.55 L78.2 50 L79.4 49.1 L81.75 48.55 L81.9 48.55 L84.25 49.1 Z M80.5 29.85 Q81.75 31.2 81.75 33.05 Q81.75 35 80.35 36.4 Q78.95 37.8 76.95 37.8 Q75.25 37.8 73.95 36.75 L73.65 36.5 L73.65 36.45 Q70.55 33.75 67.15 32.15 L66.8 32.05 L66.5 31.9 L66.4 31.9 Q57.05 28.1 48.05 31.2 Q45.95 31.95 44.05 33 Q41.05 34.65 38.45 37.25 Q36.45 39.3 35 41.5 L34.95 41.5 Q34.2 42.7 33.55 44.05 L38.45 39 Q39.95 37.45 42.1 37.4 Q44.25 37.35 45.8 38.85 Q47.3 40.35 47.35 42.5 Q47.4 44.65 45.9 46.2 L32.85 59.7 L32.3 60.3 L31.1 61.15 L28.75 61.75 L28.6 61.75 L26.25 61.15 L25.05 60.3 L24.55 59.7 L11.5 46.2 Q10 44.65 10 42.5 Q10.05 40.35 11.6 38.85 Q13.15 37.35 15.3 37.4 Q17.45 37.45 18.95 39 L23.4 43.65 L24.2 41.75 L24.15 41.75 Q25.2 39.2 26.7 36.85 Q31.25 29.3 38.8 25.05 Q43.3 22.35 48.45 21.2 L54.2 20.35 Q56.2 20.2 58.2 20.35 L59.85 20.45 L65.2 21.4 Q73.45 23.45 80.35 29.65 L80.5 29.85 Z" fill="#db7142"/></g></svg>