<svg xmlns="http://www.w3.org/2000/svg" viewBox="12.88 12.55 102.60 90.54"><path d="M63.85 27.6 L64 27.6 Q67.75 27.65 71.4 34.6 Q76.1 43.55 80.85 53.65 Q85.6 63.75 85.6 68.85 Q85.6 76.95 79.45 82.65 Q73.7 87.95 64.4 87.95 L64.25 87.95 Q54.7 88.05 48.9 82.65 Q42.75 76.95 42.75 68.85 Q42.75 63.75 47.5 53.65 Q52.25 43.55 56.95 34.6 Q60.55 27.65 63.85 27.6 Z M54.6 56.9 L54.5 56.95 Q50.45 61 50.45 66.75 Q50.45 72.5 54.5 76.55 Q58.55 80.6 64.3 80.6 Q69.95 80.6 73.95 76.75 L63.8 66.35 L54.6 56.9 Z" fill="#fff"/></svg>