<svg xmlns="http://www.w3.org/2000/svg" viewBox="33.60 18.70 86.40 61.15"><path d="M112.2 29.4 Q116.8 37.75 115.8 53.1 Q114.85 68 109.6 73.25 Q106.15 76.65 98.85 76.5 Q94.2 76.4 84 68.2 L82.35 66.9 Q79.75 67.7 76.8 67.7 Q73.8 67.7 71.2 66.9 L69.6 68.2 Q59.4 76.4 54.75 76.5 Q47.45 76.65 44 73.25 Q38.75 68 37.8 53.1 Q36.8 37.75 41.4 29.4 Q45.2 22.55 51.5 22.15 Q55.95 21.9 67.1 31 L69.05 32.6 Q72.55 31 76.8 31 Q81 31 84.55 32.6 L86.5 31 Q97.65 21.9 102.1 22.15 Q108.4 22.55 112.2 29.4 Z" fill="#fff"/></svg>