<svg xmlns="http://www.w3.org/2000/svg" viewBox="25.53 4.03 102.60 90.54"><path d="M76.8 78.85 Q66.95 78.85 60 71.9 Q53.05 64.95 53.05 55.1 Q53.05 45.25 60 38.3 Q66.95 31.35 76.8 31.35 Q86.65 31.35 93.6 38.3 Q100.55 45.25 100.55 55.1 Q100.55 64.95 93.6 71.9 Q86.65 78.85 76.8 78.85 Z M122.7 65.6 L122.7 67 L122.65 67.45 L122.65 67.5 Q122.65 68.85 121.65 69.75 Q120.7 70.7 119.45 70.7 Q118.1 70.7 117.1 69.75 Q116.25 68.85 116.25 67.5 L116.25 67.45 L116.2 67.45 L116.2 65.6 Q116.2 49.25 104.7 37.75 Q93.15 26.2 76.8 26.2 Q60.45 26.2 48.95 37.75 Q37.4 49.25 37.4 65.6 L37.4 66.75 L37.4 67.5 Q37.4 68.85 36.4 69.75 Q35.45 70.7 34.2 70.7 Q32.85 70.7 31.85 69.75 Q31 68.85 31 67.5 L31 67.05 L30.95 65.6 Q30.95 46.6 44.4 33.15 Q57.8 19.75 76.85 19.75 Q95.85 19.75 109.25 33.15 Q122.7 46.6 122.7 65.6 Z" fill="#fff"/></svg>