<svg xmlns="http://www.w3.org/2000/svg" viewBox="29.66 10.21 94.28 74.68"><path d="M118.3 17.35 Q119.95 19.9 120.45 24.3 L120.45 61.75 L120.3 63.3 L120.25 63.8 Q119.55 70.55 114.55 75.55 Q108.7 81.4 100.45 81.4 Q92.2 81.4 86.35 75.55 Q83.55 72.75 82.1 69.45 Q81.5 68.3 80.7 64.95 Q79.9 61.35 77.5 61.05 L76.8 61.05 L76.1 61.05 Q73.7 61.35 72.9 64.95 Q72.1 68.3 71.5 69.45 Q70.05 72.75 67.25 75.55 Q61.4 81.4 53.15 81.4 Q44.9 81.4 39.05 75.55 Q34.05 70.55 33.35 63.8 L33.3 63.3 L33.15 61.75 L33.15 24.3 Q33.65 19.9 35.3 17.35 Q37.55 13.75 42.2 13.7 L48.55 13.7 Q50.3 13.75 52.1 14.6 Q53.95 15.5 53.9 19.3 Q53.8 23.1 49.9 23.2 Q45.95 23.25 44.6 23.95 Q43.25 24.6 43.2 26.45 Q43.1 28.3 43.35 44.05 Q47.75 41.5 53.15 41.5 Q61.4 41.5 67.25 47.35 L68.05 48.2 L68.05 48.3 L68.15 48.3 L68.2 48.35 L77.4 48.4 L85.4 48.35 L86.35 47.35 Q92.2 41.5 100.45 41.5 Q105.85 41.5 110.25 44.05 L110.4 26.45 Q110.35 24.6 109 23.95 Q107.65 23.25 103.7 23.2 Q99.8 23.1 99.7 19.3 Q99.65 15.5 101.5 14.6 Q103.3 13.75 105.05 13.7 L111.4 13.7 Q116.05 13.75 118.3 17.35 Z M100.45 50.15 Q95.75 50.15 92.45 53.45 Q89.15 56.75 89.15 61.45 Q89.15 66.1 92.45 69.4 Q95.75 72.75 100.45 72.75 Q105.1 72.75 108.4 69.4 Q111.75 66.1 111.75 61.45 Q111.75 56.75 108.4 53.45 Q105.1 50.15 100.45 50.15 Z M61.15 53.45 Q57.85 50.15 53.15 50.15 Q48.5 50.15 45.2 53.45 Q41.85 56.75 41.85 61.45 Q41.85 66.1 45.2 69.4 Q48.5 72.75 53.15 72.75 Q57.85 72.75 61.15 69.4 Q64.45 66.1 64.45 61.45 Q64.45 56.75 61.15 53.45 Z" fill="#fff"/></svg>