<svg xmlns="http://www.w3.org/2000/svg" viewBox="24.80 3.28 102.60 90.54"><path d="M94.55 27.65 Q94.55 28.95 95.4 29.85 L106.7 41.35 Q107.5 42.15 107.5 43.35 Q107.45 44.6 106.6 45.45 Q105.7 46.3 104.5 46.25 Q103.3 46.25 102.45 45.5 L91.15 34 Q90.3 33.1 89.05 33.05 Q87.8 33.05 86.95 33.95 Q86.05 34.8 86.05 36 Q86.05 37.25 86.9 38.15 L98.2 49.65 Q99 50.5 99 51.65 Q98.95 52.95 98.1 53.8 Q97.25 54.65 96 54.6 Q94.8 54.6 94 53.85 L82.7 42.35 Q81.85 41.45 80.55 41.4 Q79.35 41.4 78.45 42.25 Q77.6 43.1 77.6 44.3 Q77.6 45.6 78.45 46.5 L90.2 58.45 L90.15 58.5 Q90.55 59.2 90.55 60 Q90.5 61.25 89.6 62.1 L89.5 62.25 L89.4 62.35 Q88.55 63.2 87.3 63.15 Q86.5 63.15 85.8 62.75 L85.75 62.8 L74 50.85 Q73.15 49.95 71.85 49.95 Q70.65 49.95 69.75 50.8 Q68.9 51.65 68.85 52.9 Q68.9 54.15 69.75 55.05 L81.05 66.55 Q81.85 67.35 81.8 68.55 Q81.8 69.8 80.95 70.65 Q80.05 71.5 78.8 71.5 Q77.65 71.45 76.8 70.7 L65.5 59.2 Q64.65 58.3 63.35 58.25 Q62.15 58.25 61.3 59.15 Q60.4 60 60.4 61.2 Q60.4 62.45 61.25 63.35 L72.55 74.85 Q73.35 75.7 73.35 76.9 Q73.3 78.15 72.45 79 Q71.6 79.85 70.35 79.8 Q69.15 79.8 68.35 79.05 L57.05 67.55 Q56.2 66.65 54.9 66.6 Q53.7 66.6 52.8 67.45 Q51.95 68.3 51.9 69.55 Q51.95 70.8 52.8 71.7 L62.45 81.5 Q66 86 63.2 87.75 Q59 90.45 40.9 71 Q33.95 63.1 42.4 54.75 L82.9 15 Q91.4 6.65 99.2 13.75 Q118.25 32.2 115.55 36.3 Q113.75 39.1 109.3 35.45 L99.65 25.65 Q98.8 24.75 97.5 24.7 Q96.3 24.75 95.4 25.6 Q94.55 26.45 94.55 27.65 Z" fill="#fff"/></svg>