<svg xmlns="http://www.w3.org/2000/svg" viewBox="246.8 5.35 145.67 49.61"><g transform="matrix(0.06870 0.00000 0.00000 0.06870 248.80 7.35)"><g transform="matrix(1.00000 0.00000 0.00000 1.00000 0.00 0.00)"><path d="M1482.25 0 L1630.25 0 L1630.25 149 L1481.25 149 L1481.25 3 Q1481.2 1.55 1481.3 1.05 Q1481.5 0.15 1482.25 0 Z" fill="#db4242"/><path d="M409.3 263.55 Q413.15 298.65 410.5 334.15 Q407.85 370.5 398.7 402.2 Q389.1 435.55 373.4 459.95 Q380.85 471.4 396.9 492.5 Q413.1 513.85 420.4 524.95 L380.2 557.25 Q355.65 577.05 339.4 588.95 L317.85 557.5 Q305.55 539.9 295.4 526.95 Q272.35 536.45 243.4 540.55 Q216.1 544.4 187.15 543 Q158.85 541.6 133.75 535.4 Q108.25 529.1 90.45 518.95 Q52.35 497.25 30.55 455.65 Q10.45 417.4 3.45 360.95 Q-3.85 301.8 4.4 246.9 Q12.85 190.9 35.45 154 Q59.25 115.15 99.6 95.35 Q139.5 75.8 199.45 73 Q277.65 69.35 328.1 103.8 Q374.65 135.6 395.4 198 Q405.4 228.05 409.3 263.55 Z M208.45 179 Q187.75 177.4 169.25 184.25 Q152.2 190.55 139.45 203 Q121.5 220.5 112.3 251.7 Q103.7 280.8 104.6 314.85 Q105.45 348.55 115.3 376.8 Q125.7 406.65 143.45 421.95 Q158.8 435.25 182 440 Q206.55 445 233.4 438.95 Q220.6 418.8 195.6 383.8 Q168.65 346.15 157.45 329 Q174.5 319.1 198.2 304.25 L238.4 279 Q248.75 293.5 265.2 315.25 L292.4 351 Q293.35 352.25 295.1 356.15 Q296.95 359.15 299.4 357.95 Q304 323.5 301.45 293.25 Q298.75 261.3 288.35 237.3 Q264.9 183.3 208.45 179 Z" fill="#42d2db"/><path d="M1817.25 205 Q1784.9 215.75 1769.5 249.9 Q1755.85 280.1 1757.25 324 Q1758.55 366.95 1772.7 395.9 Q1788.45 428.3 1819.25 440.95 Q1842.95 450.7 1867.8 449.5 Q1892 448.35 1912.15 437.15 Q1932.75 425.65 1944.55 406.15 Q1957.1 385.35 1957.2 358.95 L2062.2 347 L2062.2 364.95 Q2060.1 411.75 2043.65 448.55 Q2028.05 483.55 2000.2 507.95 Q1974.45 530.55 1934.95 545.2 Q1893.75 560.5 1851.2 561.95 Q1775.1 564.6 1724.95 526.4 Q1679.9 492.1 1661.25 429.95 Q1651.55 397.65 1648.75 360.45 Q1646.05 324.35 1650.15 288.1 Q1654.25 251.85 1664.6 220.45 Q1675.25 188.05 1691.25 165 Q1707.1 142.15 1731.95 124.75 Q1757.3 106.95 1786.25 99 Q1820.45 89.55 1858.95 89.75 Q1897.85 89.95 1931.2 100 Q1990.45 117.85 2022.3 168.7 Q2052.2 216.3 2059.2 295 L2004.95 297.75 L1951.2 301 Q1949.05 261.7 1932.1 236.2 Q1914.15 209.1 1882.2 202 Q1867.5 198.7 1849.75 199.45 Q1831.55 200.25 1817.25 205 Z" fill="#42d2db"/><path d="M1386.3 124 Q1421.2 145.05 1439.95 183.65 Q1460.1 225.15 1456.25 277 Q1454.4 302.4 1448.75 325.25 Q1443.4 346.85 1434.25 367.95 Q1393.45 462.25 1309.3 467.95 Q1286.95 469.5 1246.55 468.25 Q1203.5 466.9 1181.3 467.95 L1181.3 569.95 Q1159.65 565.5 1124.1 556.7 Q1082.65 546.4 1067.3 542.95 Q1068.6 468.2 1070.3 321 Q1072.05 171.6 1073.3 99 Q1073.25 97.55 1073.35 97.05 Q1073.55 96.15 1074.3 96 L1186 99.3 L1294.3 103 Q1325.85 104.4 1345.2 108.45 Q1368.5 113.3 1386.3 124 Z M1349.4 249.45 Q1346.5 236.15 1340.2 226.15 Q1325.75 203.2 1301.3 207 Q1279.75 210.35 1243.5 211.55 Q1201.25 212.95 1181.3 215 L1181.3 362.95 L1230.55 364.55 Q1265.6 365.4 1279.3 365.95 L1296.45 367.5 L1312.3 366.95 Q1326.25 363.5 1338.2 333.35 Q1349.15 305.7 1351.3 276 Q1352.25 262.5 1349.4 249.45 Z" fill="#42d2db"/><path d="M1033.3 111 Q1003.05 144.45 882.35 279 L959.15 413.15 Q1001.9 488.15 1035.3 547.95 Q1009.75 548.35 967.1 547.7 Q918.35 546.9 899.35 546.95 Q878.4 509.85 851.95 457.85 L806.35 366.95 Q798.8 372.1 789.75 381.6 Q786.05 385.4 773.35 399.95 L757.35 417.95 L748.35 427.35 Q743.2 432.85 742.35 435.95 Q740.1 444.25 740.45 461.8 L741.35 489.95 L741.35 543.95 L630.35 547.95 Q631.7 475.2 632.8 322.9 Q633.85 173.9 635.35 98 Q654.85 97.6 689.5 98.4 Q726.05 99.2 743.35 99 L743.35 289 Q772.7 256.85 824 197.4 Q882.9 129.2 905.35 104 Q982 102.9 1040.3 100 Q1040.9 102.95 1038.15 106.15 L1033.3 111 Z" fill="#42d2db"/><path d="M575.4 101 Q578.1 166.45 577.65 275.05 Q577.05 419.6 577.4 451.95 L519.85 456.4 L462.4 460.95 Q462.8 394.9 462.15 283.25 Q461.35 154.25 461.4 106 L518.8 103.9 L575.4 101 Z" fill="#42d2db"/><path d="M1552.85 206.05 L1605.25 204 L1607.25 203.3 Q1608.35 202.75 1609.25 203 Q1613.1 204.05 1613.5 208.85 Q1613.75 211.9 1613.25 221 Q1613.25 252.15 1614.15 384.4 Q1614.9 488.85 1614.25 543.95 L1557 548.7 L1499.25 552.95 Q1499.65 492.7 1498.85 380.4 Q1498 263.3 1498.25 208 L1552.85 206.05 Z" fill="#42d2db"/><path d="M452.4 514.95 L600.4 514.95 L600.4 663.9 L451.4 663.9 L451.4 517.95 Q451.3 516.6 451.45 516 Q451.65 515.05 452.4 514.95 Z" fill="#db4242"/></g></g></svg>