<?xml version="1.0" encoding="UTF-8"?>
<svg id="Layer_1" xmlns="http://www.w3.org/2000/svg" version="1.1" viewBox="0 0 71.47 69.54">
  <!-- Generator: Adobe Illustrator 30.5.1, SVG Export Plug-In . SVG Version: 2.1.4 Build 3)  -->
  <defs>
    <style>
      .st0 {
        fill: #db4242;
      }

      .st1 {
        fill: #42d2db;
      }
    </style>
  </defs>
  <g>
    <path class="st0" d="M31,30.38h10.17v10.24h-10.24v-10.03c0-.07,0-.11,0-.13,0-.04.03-.07.07-.07Z"/>
    <path class="st1" d="M54.01,44.47c-1.48.49-2.58,1.52-3.28,3.08-.63,1.38-.91,3.08-.84,5.09.06,1.97.41,3.61,1.06,4.94.72,1.48,1.79,2.52,3.2,3.09,1.09.45,2.2.64,3.34.59,1.11-.05,2.12-.34,3.05-.85.94-.53,1.69-1.24,2.23-2.13.57-.95.86-2.03.87-3.24l7.21-.82v1.23c-.1,2.14-.52,4.06-1.27,5.74-.71,1.6-1.71,2.96-2.99,4.08-1.18,1.04-2.67,1.89-4.48,2.56-1.89.7-3.8,1.08-5.75,1.15-3.49.12-6.38-.69-8.67-2.44-2.06-1.57-3.52-3.78-4.38-6.63-.44-1.48-.73-3.07-.86-4.77-.12-1.65-.09-3.31.1-4.97.19-1.66.52-3.21.99-4.65.49-1.48,1.1-2.75,1.83-3.81.73-1.05,1.66-1.97,2.8-2.77,1.16-.82,2.4-1.4,3.73-1.77,1.57-.43,3.23-.64,4.99-.64,1.78,0,3.44.24,4.96.7,2.71.82,4.8,2.39,6.26,4.72,1.37,2.18,2.21,5.07,2.54,8.68l-3.73.19-3.69.22c-.1-1.8-.54-3.28-1.31-4.45-.82-1.24-1.96-2.02-3.43-2.35-.67-.15-1.42-.21-2.23-.18-.83.04-1.58.16-2.23.38Z"/>
    <path class="st1" d="M24.4,38.9c1.6.96,2.83,2.33,3.69,4.1.92,1.9,1.3,4.04,1.12,6.41-.08,1.16-.26,2.27-.52,3.31-.25.99-.58,1.97-1,2.93-1.87,4.32-4.73,6.61-8.58,6.87-1.02.07-2.46.08-4.31.02-1.97-.06-3.47-.07-4.48-.02v7.01c-.99-.2-2.3-.51-3.93-.91-1.9-.47-3.2-.79-3.9-.94.06-3.42.13-8.51.21-15.25.08-6.84.15-11.93.21-15.25,0-.07,0-.11,0-.13,0-.04.03-.07.07-.07l7.67.23,7.44.25c1.44.06,2.61.19,3.5.37,1.07.22,2.01.58,2.82,1.07ZM21.87,47.52c-.13-.61-.34-1.14-.63-1.6-.66-1.05-1.55-1.49-2.67-1.32-.99.15-2.31.26-3.97.31-1.94.06-3.36.14-4.27.24v10.16l3.38.11c1.61.04,2.72.07,3.35.1l1.18.11,1.09-.04c.64-.16,1.23-.93,1.78-2.31.5-1.27.8-2.58.9-3.94.04-.62,0-1.23-.13-1.82Z"/>
    <path class="st1" d="M35.85,44.54l3.6-.14.14-.05c.05-.03.1-.03.14-.02.18.05.27.18.29.4.01.14,0,.42-.02.83,0,1.43.02,5.17.06,11.23.03,4.78.04,8.44,0,10.96l-3.93.33-3.97.29c.02-2.76,0-6.71-.03-11.85-.04-5.36-.05-9.31-.04-11.84l3.75-.13Z"/>
  </g>
  <g>
    <path class="st1" d="M28.12,13.11c.18,1.61.2,3.22.08,4.85-.12,1.66-.39,3.22-.81,4.68-.44,1.53-1.02,2.85-1.74,3.97.34.52.88,1.27,1.61,2.24.74.98,1.28,1.72,1.61,2.23l-2.76,2.22c-1.12.91-2.06,1.63-2.8,2.18l-1.48-2.16c-.56-.81-1.08-1.51-1.54-2.1-1.06.44-2.25.75-3.57.93-1.25.18-2.54.23-3.86.17-1.3-.06-2.52-.24-3.67-.52-1.17-.29-2.16-.67-2.97-1.13-1.74-.99-3.12-2.44-4.12-4.35-.92-1.75-1.54-3.92-1.86-6.51-.33-2.71-.31-5.32.07-7.84.39-2.56,1.1-4.69,2.13-6.38,1.09-1.78,2.56-3.12,4.41-4.03C8.67.66,10.95.15,13.7.02c3.58-.17,6.53.54,8.84,2.12,2.13,1.46,3.67,3.61,4.62,6.47.46,1.38.78,2.88.95,4.5ZM14.32,7.31c-.95-.07-1.85.05-2.69.36-.78.29-1.46.72-2.05,1.29-.82.8-1.44,1.92-1.87,3.35-.39,1.33-.57,2.78-.53,4.34.04,1.54.28,2.96.74,4.26.48,1.37,1.12,2.4,1.93,3.1.7.61,1.59,1.02,2.65,1.24,1.12.23,2.3.2,3.53-.07-.59-.92-1.45-2.19-2.6-3.79-1.23-1.72-2.11-2.98-2.62-3.76.78-.45,1.71-1.02,2.8-1.7l2.76-1.73c.47.66,1.09,1.49,1.84,2.49l1.87,2.46c.04.06.11.18.19.35.08.14.18.18.3.12.21-1.58.26-3.06.14-4.44-.12-1.46-.42-2.74-.9-3.84-1.07-2.47-2.9-3.81-5.49-4.01Z"/>
    <path class="st1" d="M70.99,2.63c-1.39,1.53-4.84,5.38-10.37,11.54l5.28,9.22c1.96,3.44,3.7,6.52,5.23,9.26-1.17.02-2.73.01-4.69-.02-2.23-.04-3.78-.05-4.65-.05-.96-1.7-2.04-3.74-3.26-6.12l-3.13-6.24c-.35.24-.73.57-1.14,1.01-.17.17-.55.59-1.13,1.26l-1.1,1.24-.62.65c-.24.25-.37.45-.41.59-.1.38-.15.97-.13,1.78l.06,1.93v3.71l-7.63.27c.06-3.33.12-8.49.17-15.46.05-6.82.11-11.97.18-15.45.89-.02,2.13,0,3.72.03,1.67.04,2.91.05,3.7.04v13.05c1.34-1.47,3.19-3.57,5.54-6.29,2.7-3.12,4.56-5.26,5.59-6.42,3.51-.05,6.6-.14,9.27-.27.03.14-.02.28-.15.42l-.33.33Z"/>
    <path class="st1" d="M39.53,1.95c.12,3,.18,6.98.15,11.96-.03,6.62-.03,10.67-.02,12.15l-3.95.31-3.95.31c.02-3.03.01-7.09-.02-12.21-.04-5.91-.05-9.97-.05-12.18l3.94-.14,3.89-.2Z"/>
    <path class="st0" d="M31.08,30.39h10.17v10.23h-10.24v-10.03c0-.06,0-.11,0-.13,0-.04.03-.07.07-.07Z"/>
  </g>
</svg>