<svg xmlns="http://www.w3.org/2000/svg" viewBox="41.60 4.35 70.40 86.35"><path d="M79.25 14.8 Q77.45 14.9 76.3 16.1 L52.85 40.2 Q51.5 41.5 51.5 43.2 Q51.5 45 52.85 46.2 Q54.05 47.4 55.85 47.35 Q57.55 47.35 58.85 46.15 L82.3 22.05 Q83.5 20.85 83.5 18.95 Q83.5 17.3 82.2 16 Q81 14.8 79.25 14.8 Z M104.5 81.15 Q104.5 83.75 96.35 85.6 Q88.25 87.5 76.8 87.5 Q65.3 87.5 57.2 85.6 Q49.1 83.75 49.1 81.15 Q49.1 78.5 57.2 76.65 Q63.5 75.15 71.8 74.9 L71.8 71.2 Q61.7 69.75 54.1 62.15 Q44.8 52.8 44.8 39.55 Q44.8 26.3 54.1 16.9 Q63.55 7.55 76.8 7.55 Q90.05 7.55 99.4 16.9 Q108.8 26.3 108.8 39.55 Q108.8 52.8 99.4 62.15 Q91.85 69.75 81.75 71.2 L81.75 74.9 Q90.1 75.15 96.35 76.65 Q104.5 78.5 104.5 81.15 Z M79.95 32.95 Q79.3 32.35 78.4 32.4 Q77.45 32.4 76.85 33 L64.35 45.8 Q63.8 46.4 63.8 47.35 Q63.8 48.25 64.4 48.9 Q65.15 49.6 66.05 49.6 Q67 49.6 67.6 48.9 L80.05 36.2 Q80.7 35.55 80.7 34.6 Q80.7 33.6 79.95 32.95 Z" fill="#fff"/></svg>