<svg xmlns="http://www.w3.org/2000/svg" viewBox="0 0 640 640"><g transform="matrix(1.28008 0.00000 0.00000 1.28000 320.45 328.15)"><path d="M55.55 0.55 Q55.55 -31.25 78.1 -53.75 Q100.5 -76.2 132.35 -76.2 Q164.15 -76.2 186.7 -53.75 Q209.05 -31.25 209.05 0.55 Q209.05 18 202.3 32.65 Q192.55 29.3 182.95 26.9 Q127.9 12.8 77.3 27.65 Q69.8 29.8 62.4 32.65 L62 31.75 L55.55 3.85 L55.55 3.55 L55.55 3.3 L55.55 3 L55.55 2.7 L55.55 2.3 L55.55 2 L55.55 1.55 L55.55 0.55 Z M-78.5 -53.75 Q-55.95 -31.25 -55.95 0.55 L-55.95 0.7 L-55.95 1.05 L-55.95 1.45 L-55.95 2.5 Q-56.35 18.8 -62.8 32.65 Q-70.3 29.85 -77.7 27.65 Q-132.8 11.15 -183.75 26 Q-193.3 28.8 -202.65 32.65 Q-209.45 18 -209.45 0.55 Q-209.45 -31.25 -187.1 -53.75 Q-164.55 -76.2 -132.75 -76.2 Q-100.9 -76.2 -78.5 -53.75 Z" fill="#ffffff"/><path d="M78.85 -29.3 Q91.05 -50.15 114.9 -56.45 Q138.65 -62.7 159.85 -50.65 Q180.65 -38.2 186.95 -14.35 Q192.7 7.4 182.95 26.9 Q127.9 12.8 77.3 27.65 Q74.55 22.05 72.85 15.65 Q66.55 -8.2 78.85 -29.3 Z M-115.3 -56.45 Q-91.45 -50.15 -79.25 -29.3 Q-66.95 -8.2 -73.25 15.65 Q-74.95 22.05 -77.7 27.65 Q-132.8 11.15 -183.75 26 Q-192.95 6.9 -187.35 -14.35 Q-181.05 -38.2 -160.25 -50.65 Q-139.05 -62.7 -115.3 -56.45 Z" fill="#663300"/><path d="M181.75 -107.9 Q120.05 -146.75 52.65 -134.05 L64.6 -167.35 Q133.45 -186.75 198.8 -125.3 L198.6 -124.85 Q216.65 -95.1 216.75 -65.35 Q213.1 -86.6 181.75 -107.9 Z M-202.4 -125.3 Q-137.05 -186.75 -68.2 -167.35 L-56.25 -134.05 Q-123.65 -146.75 -185.35 -107.9 Q-216.7 -86.6 -220.35 -65.35 Q-220.25 -95.1 -202.2 -124.85 L-202.4 -125.3 Z" fill="#663300"/><path d="M202.3 32.65 Q209.05 18 209.05 0.55 Q209.05 -31.25 186.7 -53.75 Q164.15 -76.2 132.35 -76.2 Q100.5 -76.2 78.1 -53.75 Q58.7 -34.4 56 -8.15 M-202.65 32.65 Q-209.45 18 -209.45 0.55 Q-209.45 -31.25 -187.1 -53.75 Q-164.55 -76.2 -132.75 -76.2 Q-100.9 -76.2 -78.5 -53.75 Q-58.65 -33.95 -56.25 -6.95" fill="none" stroke="#663300" stroke-width="15.00" stroke-linecap="round" stroke-linejoin="round"/></g></svg>