<svg xmlns="http://www.w3.org/2000/svg" viewBox="0 0 640 640"><g transform="matrix(1.28008 0.00000 0.00000 1.28000 320.45 328.15)"><path d="M58.1 4.4 Q63.8 -23.75 87.4 -41.3 Q112.75 -60.3 144.25 -55.75 Q175.75 -51.15 194.85 -25.75 Q212.25 -2.25 209.75 26.35 L209.6 28.3 L209.2 31.2 L208.15 37.25 L56.65 15.3 Q56.8 12.25 57.25 9.2 L57.75 6.3 L58.1 4.4 Z M-83.75 -42.25 Q-62.15 -24.75 -56.85 1.55 L-56.3 4.5 L-56.15 5.5 L-55.7 9.4 L-55.25 15.45 L-207.5 31.35 L-208.4 25.35 L-208.7 21.45 L-208.75 20.4 Q-210.1 -8.25 -191.75 -31 Q-171.7 -55.7 -140.05 -59 Q-108.4 -62.3 -83.75 -42.25 Z" fill="#ffffff"/><path d="M204.05 -65.1 Q134.8 -102.4 52.55 -83.45 L69.05 -124.95 Q146.3 -136.7 211.75 -93.6 L211.6 -93.15 L230.5 -32.55 L204.15 -65.75 L204.05 -65.1 Z M-203.25 -64.2 L-231.45 -32.55 L-209.1 -91.95 L-209.25 -92.45 Q-141.35 -127.15 -65.45 -124.05 L-49.85 -81 Q-128.9 -93.8 -203.15 -63.55 L-203.25 -64.2 Z" fill="#663300"/><path d="M73 10.45 Q73.5 -8.6 85.8 -24 Q100.85 -42.9 125.35 -45.75 Q149.75 -48.5 169 -33.55 Q187.75 -18.2 190.6 6.3 Q191.9 17.35 189.5 27.3 Q188.5 31.25 187 35.05 L73.3 18.6 Q72.85 14.4 73 10.45 Z M-82.8 -25.85 Q-71.15 -9.95 -71.4 9.1 Q-71.45 13.1 -72.05 17.2 L-186.25 29.15 Q-187.6 25.35 -188.45 21.35 Q-190.5 11.3 -188.75 0.25 Q-185 -24.1 -165.6 -38.65 Q-145.75 -52.85 -121.5 -49.1 Q-97.15 -45.3 -82.8 -25.85 Z" fill="#663300"/><path d="M208.15 37.25 L209.2 31.2 L209.6 28.3 L209.75 26.35 Q212.25 -2.25 194.85 -25.75 Q175.75 -51.15 144.25 -55.75 Q112.75 -60.3 87.4 -41.3 Q69.9 -28.3 62.25 -9.35 M-207.5 31.35 L-208.4 25.35 L-208.7 21.45 L-208.75 20.4 Q-210.1 -8.25 -191.75 -31 Q-171.7 -55.7 -140.05 -59 Q-108.4 -62.3 -83.75 -42.25 Q-65.7 -27.7 -59.05 -6.9" fill="none" stroke="#663300" stroke-width="15.00" stroke-linecap="round" stroke-linejoin="round"/></g></svg>