<svg xmlns="http://www.w3.org/2000/svg" viewBox="0 0 640 640"><g transform="matrix(1.28008 0.00000 0.00000 1.28000 320.45 361.45)"><path d="M181.75 -90.9 Q120.05 -129.75 52.65 -117.05 L64.6 -150.35 Q133.45 -169.75 198.8 -108.3 L198.6 -107.85 Q216.65 -78.1 216.75 -48.35 Q213.1 -69.6 181.75 -90.9 Z M-202.4 -108.3 Q-137.05 -169.75 -68.2 -150.35 L-56.25 -117.05 Q-123.65 -129.75 -185.35 -90.9 Q-216.7 -69.6 -220.35 -48.35 Q-220.25 -78.1 -202.2 -107.85 L-202.4 -108.3 Z" fill="#663300"/><path d="M208 2 Q204.15 -21.2 186.7 -38.75 Q164.15 -61.2 132.35 -61.2 Q100.5 -61.2 78.1 -38.75 Q60.5 -21.2 56.65 2 M-208.35 2 Q-204.55 -21.2 -187.1 -38.75 Q-164.55 -61.2 -132.75 -61.2 Q-100.9 -61.2 -78.5 -38.75 Q-60.9 -21.2 -57.05 2" fill="none" stroke="#663300" stroke-width="20.00" stroke-linecap="round" stroke-linejoin="round"/></g></svg>