<svg xmlns="http://www.w3.org/2000/svg" viewBox="0 0 640 640"><g transform="matrix(1.28008 0.00000 0.00000 1.28000 320.45 328.15)"><path d="M208.7 -7.35 Q209.05 -3.45 209.05 0.55 Q209.05 32.25 186.7 54.65 Q164.15 77.2 132.35 77.2 Q100.5 77.2 78.1 54.65 Q55.55 32.25 55.55 0.55 Q55.55 -3.45 55.9 -7.35 L208.7 -7.35 Z M-56.3 -7.35 Q-55.95 -3.45 -55.95 0.55 Q-55.95 32.25 -78.5 54.65 Q-100.9 77.2 -132.75 77.2 Q-164.55 77.2 -187.1 54.65 Q-209.45 32.25 -209.45 0.55 Q-209.45 -3.45 -209.1 -7.35 L-56.3 -7.35 Z" fill="#ffffff"/><path d="M188.4 -7.35 Q191.4 12.5 181.05 30.35 Q168.75 51.55 145 57.85 Q121.2 64.1 100.1 51.65 Q79.1 39.4 72.85 15.65 Q69.7 3.8 71.2 -7.35 L188.4 -7.35 Z M-71.55 -7.35 Q-70.1 3.8 -73.25 15.65 Q-79.5 39.4 -100.5 51.65 Q-121.6 64.1 -145.4 57.85 Q-169.15 51.55 -181.45 30.35 Q-191.8 12.5 -188.8 -7.35 L-71.55 -7.35 Z" fill="#663300"/><path d="M190.35 -56.55 L35.95 -82.4 L51.4 -117.35 L196.3 -85.5 L196.2 -85 L218.8 -25.65 L190.4 -57.2 L190.35 -56.55 Z M-192.6 -57.2 L-221 -25.65 L-198.4 -85 L-198.5 -85.5 L-53.6 -117.35 L-38.15 -82.4 L-192.55 -56.55 L-192.6 -57.2 Z" fill="#663300"/><path d="M55.9 -7.35 L208.7 -7.35 Q209.05 -3.45 209.05 0.55 Q209.05 32.25 186.7 54.65 L185.75 55.6 M-187.15 54.6 Q-209.45 32.2 -209.45 0.55 Q-209.45 -3.45 -209.1 -7.35 L-56.3 -7.35" fill="none" stroke="#663300" stroke-width="15.00" stroke-linecap="round" stroke-linejoin="round"/></g></svg>