<svg xmlns="http://www.w3.org/2000/svg" viewBox="0 0 640 640"><g transform="matrix(1.28000 0.00000 0.00000 1.28000 320.30 328.15)"><path d="M56.5 12.55 L204.9 -23.85 Q206.2 -20.1 207.15 -16.2 Q214.7 14.55 198.3 41.65 Q181.8 68.95 150.9 76.5 Q119.95 84.1 92.8 67.5 Q65.6 51.1 58.05 20.35 Q57.1 16.45 56.5 12.55 Z M-204.45 -23.7 L-55.65 11.2 Q-56.2 15.1 -57.15 19 Q-64.35 49.85 -91.45 66.5 Q-118.4 83.3 -149.4 76.05 Q-180.35 68.8 -197.15 41.7 Q-213.8 14.8 -206.6 -16.05 L-204.45 -23.7 Z" fill="#ffffff"/><path d="M187 19.4 Q180.1 42.9 158.55 54.7 Q136.9 66.4 113.45 59.3 Q90.2 52.4 78.45 30.85 Q72.55 20.1 71.35 8.9 L185.2 -19 Q192.85 -0.4 187 19.4 Z M-77.4 29.75 Q-88.95 51.4 -112.2 58.55 Q-135.6 65.85 -157.3 54.3 Q-179 42.8 -186.15 19.35 Q-192.15 -0.45 -184.65 -19.05 L-70.5 7.7 Q-71.65 18.9 -77.4 29.75 Z" fill="#000000"/><path d="M45.7 -3.55 L29.2 -41.95 L40.15 -37 L182.95 -97.25 L235.2 -53.35 Q196.75 -69.65 193.7 -72.15 L45.7 -3.55 Z M-177.55 -97.25 L-35.75 -38 L-23.8 -41.95 L-40.3 -3.55 L-188.95 -72.15 Q-191.35 -69.65 -229.3 -53.2 L-177.55 -97.25 Z" fill="#000000"/><path d="M56.5 12.55 L204.9 -23.85 Q206.2 -20.1 207.15 -16.2 Q214.7 14.55 198.3 41.65 L197.7 42.65 M-55.65 11.2 L-204.45 -23.7 L-206.6 -16.05 Q-213.8 14.8 -197.15 41.7 L-194.8 45.25" fill="none" stroke="#000000" stroke-width="15.00" stroke-linecap="round" stroke-linejoin="round"/></g><g transform="matrix(1.28008 0.00000 0.00000 1.28000 319.20 328.15)"><path d="M56.5 12.55 L204.9 -23.85 Q206.2 -20.1 207.15 -16.2 Q214.7 14.55 198.3 41.65 Q181.8 68.95 150.9 76.5 Q119.95 84.1 92.8 67.5 Q65.6 51.1 58.05 20.35 Q57.1 16.45 56.5 12.55 Z M-204.45 -23.7 L-55.65 11.2 Q-56.2 15.1 -57.15 19 Q-64.35 49.85 -91.45 66.5 Q-118.4 83.3 -149.4 76.05 Q-180.35 68.8 -197.15 41.7 Q-213.8 14.8 -206.6 -16.05 L-204.45 -23.7 Z" fill="#ffffff"/><path d="M187 19.4 Q180.1 42.9 158.55 54.7 Q136.9 66.4 113.45 59.3 Q90.2 52.4 78.45 30.85 Q72.55 20.1 71.35 8.9 L185.2 -19 Q192.85 -0.4 187 19.4 Z M-77.4 29.75 Q-88.95 51.4 -112.2 58.55 Q-135.6 65.85 -157.3 54.3 Q-179 42.8 -186.15 19.35 Q-192.15 -0.45 -184.65 -19.05 L-70.5 7.7 Q-71.65 18.9 -77.4 29.75 Z" fill="#000000"/><path d="M45.7 -3.55 L29.2 -41.95 L40.15 -37 L182.95 -97.25 L235.2 -53.35 Q196.75 -69.65 193.7 -72.15 L45.7 -3.55 Z M-177.55 -97.25 L-35.75 -38 L-23.8 -41.95 L-40.3 -3.55 L-188.95 -72.15 Q-191.35 -69.65 -229.3 -53.2 L-177.55 -97.25 Z" fill="#000000"/><path d="M56.5 12.55 L204.9 -23.85 Q206.2 -20.1 207.15 -16.2 Q214.7 14.55 198.3 41.65 L197.7 42.65 M-55.65 11.2 L-204.45 -23.7 L-206.6 -16.05 Q-213.8 14.8 -197.15 41.7 L-194.8 45.25" fill="none" stroke="#000000" stroke-width="15.00" stroke-linecap="round" stroke-linejoin="round"/></g></svg>