<svg xmlns="http://www.w3.org/2000/svg" viewBox="0 0 640 640"><g transform="matrix(1.28008 0.00000 0.00000 1.28000 320.45 328.15)"><path d="M55.55 0.55 Q55.55 -31.25 78.1 -53.75 Q100.5 -76.2 132.35 -76.2 Q164.15 -76.2 186.7 -53.75 Q209.05 -31.25 209.05 0.55 Q209.05 32.25 186.7 54.65 L186.15 55.2 Q129.6 18.5 58.45 22.1 Q55.55 11.95 55.55 0.55 Z M-208.9 -9.15 Q-190.4 -10.15 -173.15 -13.35 L-168.05 -14.35 L-57.25 -14.35 Q-55.95 -7.15 -55.95 0.55 Q-55.95 32.25 -78.5 54.65 Q-100.9 77.2 -132.75 77.2 Q-164.55 77.2 -187.1 54.65 Q-209.45 32.25 -209.45 0.55 Q-209.45 -4.4 -208.9 -9.15 Z" fill="#ffffff"/><path d="M78.85 -29.3 Q91.05 -50.15 114.9 -56.45 Q138.65 -62.7 159.85 -50.65 Q180.65 -38.2 186.95 -14.35 Q193.2 9.35 181.05 30.35 Q176 39.05 169.1 45.2 Q125.9 22.6 74.8 21.8 Q73.7 18.85 72.85 15.65 Q66.55 -8.2 78.85 -29.3 Z M-168.05 -14.35 L-72.95 -14.35 Q-69.15 0.05 -73.25 15.65 Q-79.5 39.4 -100.5 51.65 Q-121.6 64.1 -145.4 57.85 Q-169.15 51.55 -181.45 30.35 Q-192.75 10.85 -188.15 -11 L-173.15 -13.35 L-168.05 -14.35 Z" fill="#663300"/><path d="M185.5 -90.9 Q123.8 -129.75 56.4 -117.05 L68.35 -150.35 Q137.2 -169.75 202.55 -108.3 L202.35 -107.85 Q220.4 -78.1 220.5 -48.35 Q216.85 -69.6 185.5 -90.9 Z M-192.55 -68.2 L-52.05 -62.5 L-52.05 -27.1 L-194.55 -38.75 L-194.45 -39.35 L-230.15 -16.55 L-192.55 -67.7 L-192.55 -68.2 Z" fill="#663300"/><path d="M186.15 55.2 L186.7 54.65 Q209.05 32.25 209.05 0.55 Q209.05 -31.25 186.7 -53.75 Q164.15 -76.2 132.35 -76.2 Q100.5 -76.2 78.1 -53.75 Q58.85 -34.55 56.05 -8.6 M-57.25 -14.35 L-168.05 -14.35 L-173.15 -13.35 M-168.05 -14.35 L-208.25 -14.35 M-196.95 42.7 Q-209.45 24.2 -209.45 0.55 Q-209.45 -4.4 -208.9 -9.15" fill="none" stroke="#663300" stroke-width="15.00" stroke-linecap="round" stroke-linejoin="round"/><path d="M-57.1 -13.35 L-56.3 -13.35" fill="none" stroke="#000000" stroke-opacity="0.200" stroke-width="1.00" stroke-linecap="round" stroke-linejoin="round"/></g></svg>