<svg xmlns="http://www.w3.org/2000/svg" viewBox="0 0 640 640"><g transform="matrix(1.28000 0.00000 0.00000 1.28000 320.30 328.15)"><path d="M55.55 0.55 Q55.55 -31.25 78.1 -53.75 Q100.5 -76.2 132.35 -76.2 Q164.15 -76.2 186.7 -53.75 Q209.05 -31.25 209.05 0.55 Q209.05 32.25 186.7 54.65 Q164.15 77.2 132.35 77.2 Q100.5 77.2 78.1 54.65 Q55.55 32.25 55.55 0.55 Z M-78.5 -53.75 Q-55.95 -31.25 -55.95 0.55 Q-55.95 32.25 -78.5 54.65 Q-100.9 77.2 -132.75 77.2 Q-164.55 77.2 -187.1 54.65 Q-209.45 32.25 -209.45 0.55 Q-209.45 -31.25 -187.1 -53.75 Q-164.55 -76.2 -132.75 -76.2 Q-100.9 -76.2 -78.5 -53.75 Z" fill="#ffffff"/><path d="M78.85 -29.3 Q91.05 -50.15 114.9 -56.45 Q138.65 -62.7 159.85 -50.65 Q180.65 -38.2 186.95 -14.35 Q193.2 9.35 181.05 30.35 Q168.75 51.55 145 57.85 Q121.2 64.1 100.1 51.65 Q79.1 39.4 72.85 15.65 Q66.55 -8.2 78.85 -29.3 Z M-115.3 -56.45 Q-91.45 -50.15 -79.25 -29.3 Q-66.95 -8.2 -73.25 15.65 Q-79.5 39.4 -100.5 51.65 Q-121.6 64.1 -145.4 57.85 Q-169.15 51.55 -181.45 30.35 Q-193.6 9.35 -187.35 -14.35 Q-181.05 -38.2 -160.25 -50.65 Q-139.05 -62.7 -115.3 -56.45 Z" fill="#663300"/><path d="M179.75 -116.75 L37.25 -105.1 L37.25 -140.5 L177.75 -146.2 L177.75 -145.7 L215.35 -94.55 L179.65 -117.35 L179.75 -116.75 Z M-187.45 -117.35 L-223.15 -94.55 L-185.55 -145.7 L-185.55 -146.2 L-45.05 -140.5 L-45.05 -105.1 L-187.55 -116.75 L-187.45 -117.35 Z" fill="#663300"/><path d="M197.7 52.05 Q209.75 35.7 212.5 16 Q213.65 6.6 212.75 -3.45 Q211.8 -13.3 208.9 -22 L206.85 -27.6 Q201.75 -40.05 192.45 -50.2 Q188.45 -54.55 183.7 -58.5 L181.85 -60 Q159.95 -77.2 132.6 -77.15 L132.1 -77.15 L124.35 -76.8 Q97.05 -74.3 77.95 -56.95 Q73.4 -52.85 69.3 -47.9 Q61.6 -38.85 57.3 -29.2 M-197.7 52.05 Q-209.75 35.7 -212.5 16 Q-213.65 6.6 -212.75 -3.45 Q-211.45 -16.45 -206.85 -27.6 Q-199.55 -45.4 -183.65 -58.5 Q-157.9 -79.85 -124.35 -76.8 Q-90.5 -73.7 -69.3 -47.9 Q-61.6 -38.85 -57.3 -29.2" fill="none" stroke="#663300" stroke-width="15.00" stroke-linecap="round" stroke-linejoin="round"/></g></svg>