<svg xmlns="http://www.w3.org/2000/svg" viewBox="0 0 640 640"><path d="M305.3 429.25 Q312.8 431.65 319.05 436.4 Q343.8 420 364.5 437.25 Q372.35 443.85 379.5 451.45 Q397.4 470.45 424.2 471 L436.05 471.3 Q452.85 472.25 463.45 460.6 Q465.9 461.05 465.9 468.6 Q465.95 478.9 457.15 484.55 Q444.95 492.5 426.85 495.85 Q380.9 504.15 343.45 475.3 Q329.55 464.6 319.05 451.95 Q284.05 495.65 230.2 495.3 L222.2 495.3 Q196.2 494.1 185.7 485.95 Q175.15 477.75 175.25 468.6 Q175.3 463.8 177.1 459.25 Q187.1 472.5 205.05 472 Q228.3 471.35 248.9 461.65 Q257.8 457.45 263.6 449.35 Q274.5 434.15 292.25 429.2 Q298.85 427.25 305.3 429.25 Z" fill="#000000"/></svg>