<svg xmlns="http://www.w3.org/2000/svg" viewBox="0 0 640 640"><path d="M265.65 425.4 L288.85 427.1 Q299.8 428.35 310.55 430.65 Q317 432.05 322.6 432.25 Q333.75 429.65 344.95 427.65 L360.25 425.55 L374.3 424.5 Q380.75 424.25 387.1 424.65 Q402.4 425.5 417.25 430.05 Q424.4 432.35 430.2 437.15 Q431.35 438.15 431.7 439.45 Q442.65 484.4 439.95 530.8 Q439.15 545.05 437.4 559.25 Q436.7 564.75 435.55 570.25 L434.1 576.15 L433.4 579.1 Q431.95 587.2 428.45 594.95 Q427.05 598.05 424.8 600.85 Q422.9 603.3 420.4 605.15 Q418.5 606.5 416.5 607.15 L412.15 608.2 Q405.8 609.6 403.45 603.95 Q402.75 602.3 402.95 600.6 Q404.2 591.4 405.95 582.2 L407 574.75 Q408.95 554.2 408.65 533.5 Q408.25 501.8 403.55 470.45 L400.95 468.55 Q398.1 466.4 394.6 464.95 Q390.7 463.3 386.55 462.25 Q381.7 460.95 376.75 460.35 Q359.15 457.9 341.6 460.95 L328.5 462.65 Q323.15 463.3 317.95 462.45 L292.5 458.35 L275.85 457.75 Q267.35 458.55 259.55 461.4 Q251.2 464.55 244.65 470.45 L243.85 476.15 Q242.3 488.2 241.4 500.45 Q240.65 510.25 240.4 520.2 Q240.15 530.75 240.2 541.4 Q240.25 552.55 240.85 563.8 Q241.4 574.15 241.45 584.75 Q241.45 588.55 241.8 592.4 L242.65 600.9 Q242.85 603 242.45 604.95 Q241.35 610.25 236.55 611.8 Q233 612.75 229.1 611.95 Q227 611.35 225.35 610.05 Q220.5 606.35 218.25 600.4 Q214 589 212.1 577 Q210.35 565.65 209.25 554.3 Q208.35 545.35 208.3 536.45 L207.9 520.15 Q207.5 509.35 208 498.65 Q208.55 487.4 209.7 476.15 Q210.95 464.35 213.15 452.7 Q214.4 445.95 216.9 439.7 Q218.4 435.9 222.15 433.9 Q230.9 429.3 240.6 427.35 Q253.1 425.1 265.65 425.4 Z" fill="#000000"/></svg>