<svg xmlns="http://www.w3.org/2000/svg" viewBox="0 0 640 640"><path d="M289.15 427.1 Q300.1 428.35 310.85 430.65 Q317.3 432.05 322.9 432.25 Q334.05 429.65 345.25 427.65 L360.55 425.55 L374.6 424.5 Q381.05 424.25 387.4 424.65 Q402.7 425.5 417.55 430.05 Q424.7 432.35 430.5 437.15 Q431.65 438.15 432 439.45 Q442.95 484.4 440.25 530.8 Q439.45 545.05 437.7 559.25 Q437 564.75 435.85 570.25 L434.4 576.15 L433.7 579.1 Q432.25 587.2 428.75 594.95 Q427.35 598.05 425.1 600.85 Q423.2 603.3 420.7 605.15 Q418.8 606.5 416.8 607.15 L412.45 608.2 Q406.1 609.6 403.75 603.95 Q403.05 602.3 403.25 600.6 Q404.5 591.4 406.25 582.2 L407.3 574.75 Q409.25 554.2 408.95 533.5 Q408.55 501.8 403.85 470.45 L401.25 468.55 Q398.4 466.4 394.9 464.95 Q391 463.3 386.85 462.25 Q382 460.95 377.05 460.35 Q359.45 457.9 341.9 460.95 L328.8 462.65 Q323.45 463.3 318.25 462.45 L292.8 458.35 L276.15 457.75 Q267.65 458.55 259.85 461.4 Q251.5 464.55 244.95 470.45 L244.15 476.15 Q242.6 488.2 241.7 500.45 Q240.95 510.25 240.7 520.2 Q240.45 530.75 240.5 541.4 Q240.55 552.55 241.15 563.8 Q241.7 574.15 241.75 584.75 Q241.75 588.55 242.1 592.4 L242.95 600.9 Q243.15 603 242.75 604.95 Q241.65 610.25 236.85 611.8 Q233.3 612.75 229.4 611.95 Q227.3 611.35 225.65 610.05 Q220.8 606.35 218.55 600.4 Q214.3 589 212.4 577 Q210.65 565.65 209.55 554.3 Q208.65 545.35 208.6 536.45 L208.2 520.15 Q207.8 509.35 208.3 498.65 Q208.85 487.4 210 476.15 Q211.25 464.35 213.45 452.7 Q214.7 445.95 217.2 439.7 Q218.7 435.9 222.45 433.9 Q231.2 429.3 240.9 427.35 Q253.4 425.1 265.95 425.4 L289.15 427.1 Z M285.9 554.7 L350.35 554.7 L318.15 594.55 L285.9 554.7 Z" fill="#000000"/></svg>