<svg xmlns="http://www.w3.org/2000/svg" viewBox="0 0 640 640"><path d="M295.9 435.45 L296 435.5 Q303.35 438.45 310.15 442.75 Q311.9 443.8 312.4 445.85 Q312.85 447.85 311.75 449.6 Q310.65 451.35 308.65 451.85 Q306.6 452.3 304.85 451.2 Q298.8 447.35 292.2 444.75 L292.15 444.75 Q286.1 442.2 279.7 442.25 Q265.15 442.35 252.6 450.3 L252.6 450.25 Q249.2 452.45 246.05 455 L246 455.05 Q232.8 465.5 216.3 466.5 L215.85 466.5 Q209.9 466.3 205.55 463 L205.5 462.95 Q195.7 455.45 198.5 442.65 L198.45 442.65 Q199.25 438.9 201.45 435.75 Q209.25 423.95 223.3 429.7 L223.35 429.7 Q232.3 433.45 230.65 442.85 Q229.35 450.1 224.95 452.45 Q220.8 455.35 213.8 453.25 Q211.85 452.6 210.85 450.8 Q209.85 448.95 210.5 447 Q211.1 445.05 212.9 444.05 Q214.75 443.05 216.7 443.7 L219.65 443.95 Q220.45 443.1 220.8 441.15 Q221 439.55 219.5 438.9 L219.5 438.95 Q213.25 436.35 209.7 441.35 L209.7 441.4 Q208.65 442.9 208.25 444.75 L208.25 444.8 Q206.8 451.25 211.6 455.05 L211.55 455 Q213.4 456.35 215.9 456.5 Q229.15 455.6 239.8 447.2 L239.75 447.2 Q243.3 444.35 247.2 441.85 L247.25 441.85 Q262.25 432.35 279.65 432.25 Q288.05 432.2 295.9 435.45 Z M417.5 452.45 Q413.05 450.1 411.8 442.85 Q410.1 433.45 419.1 429.7 Q433.15 423.95 441 435.75 Q443.15 438.9 443.95 442.65 Q446.7 455.45 436.9 462.95 L436.85 463 Q432.5 466.3 426.6 466.5 L426.1 466.5 Q409.6 465.5 396.4 455.05 L396.35 455 L389.8 450.25 L389.85 450.3 Q377.25 442.35 362.75 442.25 Q356.3 442.2 350.3 444.75 L350.2 444.75 Q343.6 447.35 337.55 451.2 Q335.8 452.3 333.8 451.85 Q331.75 451.35 330.7 449.6 Q329.55 447.85 330.05 445.85 Q330.5 443.8 332.25 442.75 Q339.05 438.45 346.45 435.5 L346.5 435.45 Q354.35 432.2 362.8 432.25 Q380.15 432.35 395.2 441.85 Q399.1 444.35 402.65 447.2 L402.6 447.2 Q413.25 455.6 426.5 456.5 Q429 456.35 430.85 455 L430.8 455.05 Q435.6 451.25 434.2 444.8 L434.15 444.75 Q433.75 442.9 432.75 441.4 L432.75 441.35 Q429.15 436.35 422.9 438.95 L422.95 438.9 Q421.4 439.55 421.65 441.15 Q421.95 443.1 422.75 443.95 L425.7 443.7 Q427.7 443.05 429.5 444.05 Q431.3 445.05 431.95 447 Q432.55 448.95 431.55 450.8 Q430.55 452.6 428.6 453.25 Q421.6 455.35 417.5 452.45 Z" fill="#000000"/></svg>