<svg xmlns="http://www.w3.org/2000/svg" viewBox="0 0 640 640"><path d="M265.75 556.85 L267.45 558 Q272.35 561.3 277.95 562.95 L289.9 566.1 Q298.5 567.6 307.25 568.3 Q313.5 568.9 319.8 568.55 L336.65 567.3 L348.55 565.6 Q355.2 564.35 361.6 562.25 Q367.15 560.6 371.45 556.85 L374 561.65 Q377 567.9 378.65 574.45 Q380.15 580.35 381.05 586.65 Q381.95 592.95 381.8 599.2 L381.35 611 Q380.85 619.45 379.45 627.75 Q378.35 634 376 639.95 L261.2 639.95 L260.05 636.45 Q257.9 629.6 257 622.7 Q256.3 617.1 255.95 611.6 Q255.5 603.95 255.55 596.2 Q255.55 590.7 256.3 585.35 Q257.45 577.35 259.9 569.5 Q261.95 562.85 265.75 556.85 Z" fill="#000000"/></svg>