<svg xmlns="http://www.w3.org/2000/svg" viewBox="0 0 640 640"><path d="M595.95 405.55 Q596.7 398.8 598.2 394.65 L598.85 392.95 Q609.65 380.3 616.9 391.95 L616.65 393.4 L617.4 394.65 Q618.9 397.6 620.95 404.75 Q629.55 434.9 622.45 455.05 Q615.35 475.2 609.5 492.85 Q613.6 513 610.85 520.05 Q609.1 529.05 604.55 536.65 Q592.65 556.35 564.95 559 Q563.85 573.3 555.9 584.05 L554.8 585.55 L552.4 588.25 Q548.3 589.65 543.85 592.25 Q540.7 594.1 534.35 595.95 L522.6 599.25 Q507.65 603.6 503.3 609.6 Q494.55 621.7 479.3 627.75 Q469.3 631.7 452 634.15 Q434.2 636.7 429.65 638.35 Q427.7 639.05 426.15 640 L217.2 640 Q215.65 639.05 213.7 638.35 Q209.15 636.7 191.35 634.15 Q174.05 631.7 164.05 627.75 Q148.8 621.7 140.05 609.6 Q135.7 603.6 120.75 599.25 L109 595.95 Q102.65 594.1 99.5 592.25 Q95.05 589.65 90.95 588.25 L88.55 585.55 L87.45 584.05 Q79.5 573.3 78.4 559 Q50.7 556.35 38.8 536.65 Q34.25 529.05 32.5 520.05 Q29.2 504.95 33.85 492.85 L20.9 455.05 Q13.8 434.9 22.4 404.75 Q24.45 397.6 25.95 394.65 L26.7 393.4 L26.45 391.95 Q26.95 377.4 44.35 391.95 L44.5 392.95 L45.15 394.65 Q46.65 398.8 47.4 405.55 Q48.35 413.8 53.25 420.5 Q58.15 427.15 67.45 432.45 Q142.8 432.15 172.3 474.3 Q198.05 449.85 227.9 448.7 L247.75 449.3 Q273.4 428.9 319.15 441.15 L319.15 441.1 Q371.2 425.85 394.45 448.15 Q398.65 448.05 415.45 448.7 Q445.3 449.85 471.05 474.3 Q500.55 432.15 575.9 432.45 Q585.2 427.15 590.1 420.5 Q595 413.8 595.95 405.55 Z M387.65 471.85 Q352.5 488.05 322.8 465.85 Q290.85 488.05 255.7 471.85 Q252.15 482.1 236.6 489.55 Q222.3 496.35 207.9 493.25 Q227.35 512.8 225.45 529.75 Q240.05 527.6 252 542.15 Q260.5 552.45 261.5 554.1 Q297.15 550 309.75 565 Q316.35 554.85 338.75 560.35 Q352.45 550.75 381.85 554.1 Q382.85 552.45 391.35 542.15 Q403.3 527.6 417.9 529.75 Q416 512.8 435.45 493.25 Q421.05 496.35 406.75 489.55 Q391.2 482.1 387.65 471.85 Z" fill="#000000"/></svg>