<svg xmlns="http://www.w3.org/2000/svg" viewBox="0 0 640 640"><path d="M267.1 442.15 Q290.15 415.05 316.85 434.9 L319.85 434.9 Q346.15 415.35 377.45 444.7 Q428.65 476.4 453.5 465.75 Q459.85 462.75 461.8 457.75 Q464 463 460.8 477.2 Q458.55 480.2 454.75 482.75 Q503 494.3 597.65 443.75 Q603.05 442.8 613.45 432.65 Q623.85 422.5 618.7 428.75 L613.9 460.35 Q557.45 567.45 471.15 620.7 Q434.2 638.05 415.7 639.6 L412.4 639.9 L223.6 639.25 L212.55 637.05 L207 635.85 L169 622.8 L148.85 610.75 Q33 520.05 10 435.15 Q43.3 454.55 41.05 453.65 Q133.7 494.3 181.95 482.75 Q172.9 476.75 172.7 467.85 Q172.25 467.5 172.7 467.05 Q172.8 462.75 174.9 457.75 Q176.35 461.45 180.2 464.05 Q216.75 482 269.3 439.35 L267.1 442.15 Z M315.25 450.45 Q269.15 503.85 197.5 492.35 Q200.3 563.1 254.3 588.85 Q312.45 613.7 378.25 588.85 Q437.4 556.75 433.85 490.3 Q363.65 501.6 315.25 450.45 Z" fill="#000000"/></svg>