<svg xmlns="http://www.w3.org/2000/svg" viewBox="0 0 640 640"><path d="M619.15 370.65 Q630.05 401.5 602 490.4 Q535.65 633.2 362.25 603.6 Q347.65 601.05 383.2 570.35 Q418.7 539.65 425.25 532.2 Q430.45 526.3 438.65 526.55 Q483.3 535.15 526.95 505.65 Q558.4 483.85 573.35 443.45 Q588.25 403.15 589.6 384.9 Q596.8 379.4 619.15 370.65 Z M37.15 490.4 Q9.1 401.5 20 370.65 Q42.35 379.4 49.55 384.9 Q50.9 403.15 65.8 443.45 Q80.75 483.85 112.2 505.65 Q155.85 535.15 200.5 526.55 Q208.7 526.3 213.9 532.2 Q220.45 539.65 258.45 569.95 Q296.4 600.2 278.2 603.8 Q103.5 633.2 37.15 490.4 Z" fill="#000000"/></svg>