<svg xmlns="http://www.w3.org/2000/svg" viewBox="0 0 640 640"><path d="M312.85 406.9 Q313.75 407.35 314.5 408.15 L320.25 414.25 L326.1 408.05 L327.15 406.9 Q331.85 403.35 336.45 400.95 Q369.05 381.9 400.15 404.45 L400.6 404.65 Q410.2 412 416 421.8 L416.35 422.5 L419 427.6 L419 428.05 Q427.8 446.1 443.6 455.15 Q448.8 457.9 454.55 459.75 Q459.7 461.55 465.75 460.9 Q469.05 460.45 472.15 462 Q475.1 463.4 477.05 466.2 Q478.8 469.15 478.8 472.5 L478.8 473 L478.8 473.3 Q477.3 512.85 438.85 527.85 L438.65 527.85 Q408.6 539 378.25 533.35 L378.05 533.35 L367.95 530.9 Q349.2 525.35 334.55 513.1 L334.55 512.85 Q327.15 506.85 321.1 499.5 L321.35 499.7 L320.25 497.95 Q319.3 498.6 318.9 499.5 Q312.85 507.1 305.45 513.1 Q287.35 528.5 262.55 533.35 L262.2 533.35 Q231.7 539 201.3 527.85 Q194.9 525.35 189.5 522.2 Q162.1 506.2 161.35 473.3 L161.35 473 L161.35 472.5 Q161.35 469.15 163.2 466.2 Q164.9 463.4 168 462 Q171.2 460.45 174.5 460.9 Q180.1 461.55 185.55 459.75 L185.65 459.75 Q209.6 451.95 220.95 428.05 Q220.95 427.85 221.1 427.6 L223.8 422.5 Q223.8 422.1 224.05 421.8 Q230.1 412 239.7 404.65 L240.05 404.45 Q271.15 381.9 303.7 400.95 L307.9 403.5 Q310.4 404.85 312.85 406.9 Z" fill="#000000"/></svg>