<svg xmlns="http://www.w3.org/2000/svg" viewBox="0 0 640 640"><path d="M315.8 441.9 Q318.1 444.5 318.1 447.55 Q318.1 450.65 315.8 453.3 Q312.85 456.6 307.1 457.55 L249.1 457.55 Q241.1 456.9 238 453.55 Q235.85 451.3 235.85 447.4 Q235.85 443.25 239.25 440.6 Q242.8 437.8 249.1 437.55 L307.1 437.55 Q312.85 438.55 315.8 441.9 Z M402.8 441.9 Q405.1 444.5 405.1 447.55 Q405.1 450.65 402.8 453.3 Q399.85 456.6 394.1 457.55 L336.1 457.55 Q328.1 456.9 325 453.55 Q322.85 451.3 322.85 447.4 Q322.85 443.25 326.25 440.6 Q329.8 437.8 336.1 437.55 L394.1 437.55 Q399.85 438.55 402.8 441.9 Z" fill="#000000"/></svg>