<svg xmlns="http://www.w3.org/2000/svg" viewBox="0 0 640 640"><path d="M187.95 434.35 Q192.75 434.3 192.75 439.15 Q192.75 441.15 191.25 442.55 Q189.75 443.85 187.95 443.85 Q184.5 443.85 183.55 441.8 Q183.15 441 183.15 439.35 Q183.15 434.35 187.95 434.35 Z M184.15 464.3 L179.65 462.7 Q179.35 462.1 179.35 458.9 Q179.35 453.45 184.15 453.45 Q188.95 453.45 188.95 458.9 Q188.95 462.9 184.15 464.3 Z M175.85 452.8 Q174.4 454.1 172.6 454.1 Q169.15 454.1 168.2 452.05 Q167.8 451.25 167.8 449.6 Q167.8 444.6 172.6 444.6 Q177.4 444.55 177.4 449.4 Q177.4 451.45 175.85 452.8 Z M164.3 468.15 Q162.8 469.45 161.1 469.45 Q157.55 469.45 156.6 467.4 Q156.3 466.7 156.3 464.95 Q156.3 459.95 161.1 459.95 Q165.9 459.9 165.9 464.75 Q165.9 466.8 164.3 468.15 Z M160.75 441.75 Q160.75 443.8 159.25 445.1 Q157.75 446.4 155.95 446.4 Q152.5 446.4 151.55 444.35 Q151.15 443.6 151.15 441.9 Q151.15 436.95 155.95 436.95 Q160.75 436.85 160.75 441.75 Z M127.8 436.95 Q132.6 436.85 132.6 441.75 Q132.6 443.7 131.05 445.1 Q129.6 446.4 127.8 446.4 Q124.35 446.4 123.4 444.35 Q123 443.6 123 441.9 Q123 436.95 127.8 436.95 Z M99.95 441.9 Q99.95 436.95 104.75 436.95 Q109.55 436.85 109.55 441.75 Q109.55 443.7 108.05 445.1 Q106.55 446.4 104.75 446.4 Q101.3 446.4 100.35 444.35 Q99.95 443.6 99.95 441.9 Z M113.75 452.3 Q118.55 452.2 118.55 457.1 Q118.55 459.15 117 460.5 Q115.5 461.75 113.75 461.75 Q110.25 461.75 109.3 459.7 Q108.95 458.95 108.95 457.3 Q108.95 452.3 113.75 452.3 Z M147.95 453.25 Q147.95 455.3 146.45 456.65 Q144.95 457.9 143.15 457.9 Q139.7 457.9 138.75 455.85 Q138.35 455.1 138.35 453.45 Q138.35 448.45 143.15 448.45 Q147.95 448.4 147.95 453.25 Z M131 469.45 Q127 469.45 125.9 467.4 Q125.55 466.75 125.55 464.95 Q125.55 459.95 131 459.95 Q136.45 459.9 136.45 464.75 Q136.45 467.6 133.95 468.8 Q132.55 469.45 131 469.45 Z M484.95 436.95 Q489.75 436.95 489.75 441.9 Q489.75 443.6 489.35 444.35 Q488.4 446.4 484.95 446.4 Q483.15 446.4 481.65 445.1 Q480.15 443.8 480.15 441.75 Q480.15 436.85 484.95 436.95 Z M512.4 445.1 Q510.85 443.7 510.85 441.75 Q510.85 436.85 515.65 436.95 Q520.45 436.95 520.45 441.9 Q520.45 443.6 520.05 444.35 Q519.1 446.4 515.65 446.4 Q513.85 446.4 512.4 445.1 Z M530.3 457.15 Q529.35 459.2 525.9 459.2 Q524.1 459.2 522.6 457.9 Q521.1 456.6 521.1 454.55 Q521.1 449.65 525.9 449.75 Q530.7 449.75 530.7 454.7 Q530.7 456.4 530.3 457.15 Z M505.75 464.75 Q505.75 459.9 511.15 459.95 Q516.6 459.95 516.6 464.95 Q516.6 466.75 516.3 467.4 Q515.2 469.45 511.15 469.45 Q509.65 469.45 508.2 468.8 Q505.75 467.6 505.75 464.75 Z M503.4 454.6 Q502.45 456.65 499 456.65 Q497.2 456.65 495.75 455.35 Q494.2 454 494.2 451.95 Q494.2 447.1 499 447.15 Q503.8 447.15 503.8 452.15 Q503.8 453.8 503.4 454.6 Z M483.65 458.7 Q488.45 458.7 488.45 463.7 Q488.45 465.4 488.15 466.1 Q487.15 468.15 483.65 468.15 Q481.9 468.15 480.45 466.9 Q478.85 465.55 478.85 463.5 Q478.85 458.6 483.65 458.7 Z M537.4 450.25 Q535.6 450.25 534.15 448.95 Q532.6 447.55 532.6 445.55 Q532.6 440.7 537.4 440.75 Q542.2 440.75 542.2 445.75 Q542.2 447.4 541.8 448.2 Q540.85 450.25 537.4 450.25 Z M454.2 434.35 Q459 434.35 459 439.35 Q459 441 458.6 441.8 Q457.65 443.85 454.2 443.85 Q452.4 443.85 450.95 442.55 Q449.4 441.15 449.4 439.15 Q449.4 434.3 454.2 434.35 Z M475.25 452.05 Q474.3 454.1 470.85 454.1 Q469.05 454.1 467.6 452.8 Q466.05 451.45 466.05 449.4 Q466.05 444.55 470.85 444.6 Q475.65 444.6 475.65 449.6 Q475.65 451.25 475.25 452.05 Z M462.55 464 L458.05 465.6 Q453.25 464.2 453.25 460.15 Q453.25 454.7 458.05 454.7 Q462.85 454.7 462.85 460.15 Q462.85 463.35 462.55 464 Z" fill="#db6464"/><path d="M355.8 392.3 Q355.8 406.9 345.45 417.2 Q335.15 427.5 320.6 427.5 Q306 427.5 295.7 417.2 Q285.4 406.9 285.4 392.3 Q285.4 377.75 295.7 367.4 Q306 357.1 320.6 357.1 Q335.15 357.1 345.45 367.4 Q355.8 377.75 355.8 392.3 Z" fill="#db4242"/></svg>