<svg xmlns="http://www.w3.org/2000/svg" viewBox="0 0 640 640"><path d="M279.85 428.15 L320.85 357 L362.1 428.15 L279.85 428.15 Z" fill="#db4242"/><path d="M178.6 443.4 Q192.25 451.45 192.25 462.85 Q192.25 466.5 190.9 469.75 Q187.9 476.8 178.6 482.35 Q164.95 490.45 145.75 490.45 Q126.55 490.45 112.9 482.35 Q103.55 476.8 100.6 469.75 Q99.2 466.5 99.2 462.85 Q99.2 451.45 112.9 443.4 Q117.95 440.3 123.85 438.45 Q133.7 435.25 145.75 435.25 Q157.8 435.25 167.7 438.45 Q173.5 440.3 178.6 443.4 Z M528.4 443.4 Q542 451.45 542 462.85 Q542 474.25 528.4 482.35 Q514.75 490.45 495.5 490.45 Q476.3 490.45 462.65 482.35 Q448.95 474.25 448.95 462.85 Q448.95 451.45 462.65 443.4 Q476.3 435.25 495.5 435.25 Q514.75 435.25 528.4 443.4 Z" fill="#db6464"/></svg>