<svg xmlns="http://www.w3.org/2000/svg" viewBox="0 0 640 640"><path d="M178.6 443.4 Q192.25 451.45 192.25 462.85 Q192.25 466.5 190.9 469.75 Q187.9 476.8 178.6 482.35 Q170.8 487 161.2 488.95 Q154 490.45 145.75 490.45 Q126.55 490.45 112.9 482.35 Q103.55 476.8 100.6 469.75 Q99.2 466.5 99.2 462.85 Q99.2 451.45 112.9 443.4 Q117.95 440.3 123.85 438.45 Q133.7 435.25 145.75 435.25 Q154 435.25 161.2 436.8 Q164.55 437.45 167.7 438.45 Q173.5 440.3 178.6 443.4 Z M528.4 443.4 Q542 451.45 542 462.85 Q542 474.25 528.4 482.35 Q514.75 490.45 495.5 490.45 Q476.3 490.45 462.65 482.35 Q448.95 474.25 448.95 462.85 Q448.95 451.45 462.65 443.4 Q476.3 435.25 495.5 435.25 Q514.75 435.25 528.4 443.4 Z" fill="#db6464"/><path d="M320.5 382.7 Q336.65 382.7 348.05 387.85 Q359.55 392.95 359.55 400.2 Q359.55 407.4 348.15 415.85 Q336.65 424.2 320.5 424.7 Q304.3 425.15 292.95 416.4 Q281.4 407.4 281.4 400.2 Q281.4 392.95 292.8 387.85 Q304.3 382.7 320.5 382.7 Z" fill="#db4242"/></svg>