<svg xmlns="http://www.w3.org/2000/svg" viewBox="0 0 640 640"><path d="M178.6 443.4 Q192.25 451.45 192.25 462.85 Q192.25 466.5 190.9 469.75 Q187.9 476.8 178.6 482.35 Q164.95 490.45 145.75 490.45 Q126.55 490.45 112.9 482.35 Q103.55 476.8 100.6 469.75 Q99.2 466.5 99.2 462.85 Q99.2 451.45 112.9 443.4 Q117.95 440.3 123.85 438.45 Q133.7 435.25 145.75 435.25 Q157.8 435.25 167.7 438.45 Q173.5 440.3 178.6 443.4 Z M528.4 443.4 Q542 451.45 542 462.85 Q542 474.25 528.4 482.35 Q514.75 490.45 495.5 490.45 Q476.3 490.45 462.65 482.35 Q448.95 474.25 448.95 462.85 Q448.95 451.45 462.65 443.4 Q476.3 435.25 495.5 435.25 Q514.75 435.25 528.4 443.4 Z" fill="#db6464"/><path d="M305.85 416 Q305.85 421.05 302.25 424.6 Q298.75 428.15 293.7 428.15 Q288.65 428.15 285.05 424.6 Q281.55 421.05 281.55 416 Q281.55 410.95 285.05 407.35 Q288.65 403.85 293.7 403.85 Q298.75 403.85 302.25 407.35 Q305.85 410.95 305.85 416 Z M358.35 416 Q358.35 421.05 354.75 424.6 Q351.25 428.15 346.2 428.15 Q341.1 428.15 337.55 424.6 Q334 421.05 334 416 Q334 410.95 337.55 407.35 Q341.1 403.85 346.2 403.85 Q351.25 403.85 354.75 407.35 Q358.35 410.95 358.35 416 Z" fill="#db4242"/></svg>