<svg xmlns="http://www.w3.org/2000/svg" viewBox="0 0 640 640"><path d="M610.7 88.8 L640.15 127.3 L593 115.85 L565.5 155.8 L561.8 107.4 L515.4 93.55 L560.2 75.15 L559.05 26.7 L590.35 63.55 L636.15 47.55 L610.7 88.8 Z M416.15 63.15 L437.35 74.75 L455.65 59.1 L451.2 82.75 L471.75 95.4 L447.85 98.5 L442.25 121.85 L431.85 100.15 L407.85 102 L425.4 85.4 L416.15 63.15 Z M378.95 131.8 L371 174.25 L407.85 196.95 L364.95 202.5 L354.85 244.55 L336.25 205.45 L293.1 208.8 L324.6 179.1 L308.1 139.15 L346.05 159.85 L378.95 131.8 Z M605.1 373.7 L600.65 397.35 L621.2 410 L597.3 413.1 L591.7 436.45 L581.3 414.75 L557.3 416.6 L574.85 400 L565.6 377.75 L586.8 389.35 L605.1 373.7 Z M228.85 27.15 L224.4 50.8 L244.95 63.45 L221.05 66.55 L215.45 89.9 L205.05 68.2 L181.05 70.05 L198.6 53.45 L189.35 31.2 L210.55 42.8 L228.85 27.15 Z M60.7 94.9 L92.35 67.95 L84.7 108.8 L120.15 130.6 L78.9 135.95 L69.15 176.4 L51.3 138.8 L9.8 142 L40.05 113.45 L24.2 75 L60.7 94.9 Z M190.25 519.25 L186.25 540.65 L204.8 552.05 L183.25 554.9 L178.15 576.05 L168.75 556.4 L147 558.05 L162.9 543.05 L154.55 522.95 L173.7 533.4 L190.25 519.25 Z M35.15 419.8 L24.25 393.4 L49.35 407.1 L71.05 388.55 L65.8 416.65 L90.15 431.6 L61.85 435.3 L55.15 463.05 L42.85 437.25 L14.35 439.45 L35.15 419.8 Z M475.15 562.4 L471.15 583.8 L489.7 595.2 L468.15 598.05 L463.05 619.2 L453.65 599.55 L431.9 601.2 L447.8 586.2 L439.45 566.1 L458.6 576.55 L475.15 562.4 Z" fill="#f5f5f5"/></svg>