<svg xmlns="http://www.w3.org/2000/svg" viewBox="0 0 640 640"><path d="M73.45 584.95 Q70.7 582.2 70.7 578.35 Q70.7 574.5 73.45 571.75 Q76.2 569 80.05 569 Q83.9 569 86.65 571.75 Q89.4 574.5 89.4 578.35 Q89.4 582.2 86.65 584.95 Q83.9 587.7 80.05 587.7 Q76.2 587.7 73.45 584.95 Z M115.85 563.25 Q115.85 567.1 113.1 569.85 Q110.35 572.6 106.5 572.6 Q102.65 572.6 99.9 569.85 Q97.15 567.1 97.15 563.25 Q97.15 559.4 99.9 556.65 Q102.65 553.9 106.5 553.9 Q110.35 553.9 113.1 556.65 Q115.85 559.4 115.85 563.25 Z M523.25 565.25 Q523.25 561.4 526 558.65 Q528.75 555.9 532.6 555.9 Q536.45 555.9 539.2 558.65 Q541.95 561.4 541.95 565.25 Q541.95 569.1 539.2 571.85 Q536.45 574.6 532.6 574.6 Q528.75 574.6 526 571.85 Q523.25 569.1 523.25 565.25 Z M550.8 571.75 Q553.55 569 557.4 569 Q561.25 569 564 571.75 Q566.75 574.5 566.75 578.35 Q566.75 582.2 564 584.95 Q561.25 587.7 557.4 587.7 Q553.55 587.7 550.8 584.95 Q548.05 582.2 548.05 578.35 Q548.05 574.5 550.8 571.75 Z" fill="#f5f5f5"/></svg>