<svg xmlns="http://www.w3.org/2000/svg" viewBox="0 0 640 640"><path d="M549.65 148.95 L546.4 138 Q545.75 135.7 546.5 133.45 Q547.25 131.2 549.2 129.8 Q551.15 128.4 553.5 128.35 Q555.9 128.3 557.85 129.7 L567.25 136.15 L576.6 129.7 Q578.55 128.3 580.95 128.35 Q583.3 128.35 585.25 129.8 L585.95 130.35 L622.3 103 Q624.8 101.15 627.85 101.6 Q630.9 102 632.8 104.5 Q634.65 107 634.25 110.05 Q633.8 113.1 631.3 115 L585.45 149.45 L593.85 155.85 Q595.7 157.35 596.45 159.6 Q597.1 161.85 596.4 164.1 Q595.65 166.35 593.75 167.8 Q591.8 169.25 589.45 169.3 L578.1 169.6 L574.35 180.3 Q573.5 182.55 571.6 183.95 Q569.6 185.3 567.25 185.3 Q564.9 185.3 562.95 183.95 Q561 182.55 560.2 180.3 L556.35 169.6 L545.05 169.3 Q542.65 169.25 540.75 167.8 Q538.8 166.35 538.1 164.1 Q537.35 161.85 538.05 159.6 Q538.75 157.3 540.65 155.85 L549.65 148.95 Z M619.45 196.05 Q617.25 197.35 614.65 197 Q611.55 196.55 609.7 194.1 Q607.8 191.6 608.25 188.55 Q608.65 185.45 611.15 183.6 L616.9 179.25 L627.45 171.35 Q629.9 169.45 633 169.9 Q636.05 170.3 637.95 172.8 Q639.8 175.25 639.4 178.35 Q638.95 181.4 636.5 183.3 L620.2 195.55 L619.45 196.05 Z" fill="#f5f5f5"/><path d="M614.4 176.1 Q616.1 177.35 616.9 179.25 L611.15 183.6 Q608.65 185.45 608.25 188.55 Q607.8 191.6 609.7 194.1 Q611.55 196.55 614.65 197 Q617.25 197.35 619.45 196.05 L623 202.15 Q624.85 203.65 625.6 205.9 Q626.25 208.15 625.55 210.4 Q624.8 212.65 622.9 214.1 Q620.95 215.55 618.6 215.6 L607.25 215.9 L603.5 226.6 Q602.65 228.85 600.75 230.25 Q598.75 231.6 596.4 231.6 Q594.05 231.6 592.1 230.25 Q590.15 228.85 589.35 226.6 L585.5 215.9 L574.2 215.6 Q571.8 215.55 569.9 214.1 Q567.95 212.65 567.25 210.4 Q566.5 208.15 567.2 205.9 Q567.9 203.6 569.8 202.15 L578.8 195.25 L575.55 184.3 Q574.9 182 575.65 179.75 Q576.4 177.5 578.35 176.1 Q580.3 174.7 582.65 174.65 Q585.05 174.6 587 176 L596.4 182.45 L605.75 176 Q607.7 174.6 610.1 174.65 Q612.45 174.65 614.4 176.1 Z" fill="#ffffff"/></svg>