<svg xmlns="http://www.w3.org/2000/svg" viewBox="0 0 640 640"><path d="M174.1 108.1 Q156.75 111.6 129.9 95.85 L125.4 93.75 L125.5 93.3 Q127.85 86.15 124.6 79.5 Q121.55 73.4 115.6 70.85 L116.45 68.65 Q120.1 37.8 133.15 26 Q135.75 22.1 139.9 19.3 L143.5 17.2 Q153.5 12.15 163.8 15.55 Q169.1 17.35 172.9 20.85 Q176.4 24 178.65 28.55 Q183.45 38.1 180 48.35 Q178.55 52.65 176.1 55.85 Q180.3 55.95 184.55 57.35 Q194.7 60.7 199.55 70.3 Q204.3 79.9 200.85 90 Q197.5 100.2 187.35 105.2 Q180.8 108.55 174.1 108.1 Z M115.6 70.85 Q121.55 73.4 124.6 79.5 Q127.85 86.15 125.5 93.3 L125.4 93.75 Q122.95 100.55 116.45 103.8 Q111 106.5 105.4 105.6 L102.5 104.8 L105.4 105.6 L104.7 108.4 Q101.15 139.25 87.95 151.05 Q84.3 156.55 77.65 159.9 Q67.65 164.9 57.45 161.55 Q47.3 158.1 42.45 148.5 Q37.75 139 41.1 128.85 Q42.6 124.55 45.1 121.15 Q40.9 121.25 36.65 119.8 Q26.5 116.35 21.7 106.8 Q16.95 97.25 20.35 87.05 Q23.7 76.85 33.8 71.9 Q40.4 68.55 47.05 68.95 Q64.4 65.55 91.2 81.25 L91 81.75 Q88.7 88.9 92.05 95.7 Q95.4 102.45 102.5 104.8 Q95.4 102.45 92.05 95.7 Q88.7 88.9 91 81.75 L91.2 81.25 Q93.75 74.55 100.2 71.25 Q106.95 68 114.05 70.3 L115.6 70.85 Z" fill="#ffffff"/><path d="M129.9 95.85 Q156.75 111.6 174.1 108.1 Q180.8 108.55 187.35 105.2 Q197.5 100.2 200.85 90 Q204.3 79.9 199.55 70.3 Q194.7 60.7 184.55 57.35 Q180.3 55.95 176.1 55.85 Q178.55 52.65 180 48.35 Q183.45 38.1 178.65 28.55 Q176.4 24 172.9 20.85 Q169.1 17.35 163.8 15.55 Q153.5 12.15 143.5 17.2 L139.9 19.3 Q135.75 22.1 133.15 26 Q120.1 37.8 116.45 68.65 M115.6 70.85 Q121.55 73.4 124.6 79.5 Q127.85 86.15 125.5 93.3 L125.4 93.75 M105.4 105.6 L102.5 104.8 Q95.4 102.45 92.05 95.7 Q88.7 88.9 91 81.75 L91.2 81.25 Q64.4 65.55 47.05 68.95 Q40.4 68.55 33.8 71.9 Q23.7 76.85 20.35 87.05 Q16.95 97.25 21.7 106.8 Q26.5 116.35 36.65 119.8 Q40.9 121.25 45.1 121.15 Q42.6 124.55 41.1 128.85 Q37.75 139 42.45 148.5 Q47.3 158.1 57.45 161.55 Q67.65 164.9 77.65 159.9 Q84.3 156.55 87.95 151.05 Q101.15 139.25 104.7 108.4 M105.4 105.6 Q111 106.5 116.45 103.8 Q122.95 100.55 125.4 93.75 M91.2 81.25 Q93.75 74.55 100.2 71.25 Q106.95 68 114.05 70.3 L115.6 70.85" fill="none" stroke="#ffffff" stroke-width="10.00" stroke-linecap="round" stroke-linejoin="round"/></svg>