<svg xmlns="http://www.w3.org/2000/svg" viewBox="0 0 640 640"><path d="M585.4 140.25 Q538.35 85.7 520.65 75.55 L517.65 71.95 Q544.6 59.15 591.4 52.05 Q599.85 102.2 585.4 140.25 Z M18.25 8.3 Q113.45 3.1 172.9 41.05 Q175.5 42.7 176.2 45.7 Q176.85 48.7 175.2 51.35 Q173.5 54 170.5 54.7 Q167.45 55.35 164.85 53.7 Q110.55 19.55 24.85 23.05 Q8.55 105.35 29.1 193.45 Q29.8 196.45 28.2 199.1 Q26.5 201.75 23.5 202.45 Q20.5 203.15 17.85 201.55 Q15.2 199.85 14.5 196.85 Q-7.55 102.35 11.35 14.25 Q11.85 11.75 13.8 10.1 Q15.7 8.45 18.25 8.3 Z M129.1 74.65 L128.65 75.6 Q127.85 77.45 126.3 78.7 Q99.55 99.7 60.3 145.15 Q58.5 147.2 55.85 147.65 Q53.2 148.1 50.9 146.75 Q48.55 145.45 47.6 142.95 Q32.4 103.2 41.2 50.8 Q41.7 47.8 44.2 46 Q46.7 44.15 49.75 44.65 Q97.6 51.9 125.3 65.1 Q128 66.35 129.1 69.1 Q130.2 71.85 129.1 74.65 Z" fill="#f5f5f5"/><path d="M520.65 75.55 Q538.35 85.7 585.4 140.25 Q599.85 102.2 591.4 52.05 Q544.6 59.15 517.65 71.95 L520.65 75.55 M471.15 46.35 Q528.9 10.75 621.35 15.8 Q639.85 102.35 618.2 194.15" fill="none" stroke="#f5f5f5" stroke-width="15.00" stroke-linecap="round" stroke-linejoin="round"/></svg>