<svg xmlns="http://www.w3.org/2000/svg" viewBox="0 0 640 640"><path d="M70 567.8 Q73.85 567.8 76.6 570.55 Q79.35 573.3 79.35 577.15 Q79.35 581 76.6 583.75 Q73.85 586.5 70 586.5 Q66.15 586.5 63.4 583.75 Q60.65 581 60.65 577.15 Q60.65 573.3 63.4 570.55 Q66.15 567.8 70 567.8 Z M559.5 583.75 Q556.75 581 556.75 577.15 Q556.75 573.3 559.5 570.55 Q562.25 567.8 566.1 567.8 Q569.95 567.8 572.7 570.55 Q575.45 573.3 575.45 577.15 Q575.45 581 572.7 583.75 Q569.95 586.5 566.1 586.5 Q562.25 586.5 559.5 583.75 Z" fill="#f5f5f5"/></svg>