<svg xmlns="http://www.w3.org/2000/svg" viewBox="0 0 640 640"><path d="M282.6 77.8 L282.85 77.15 L287.5 67.25 L290 62.15 Q302.85 36.55 318.9 11.8 Q321.9 5.8 326.75 11.75 Q336.15 26.45 346.3 44.95 Q329.1 58.25 310.05 67.25 Q298.65 72.65 286.6 76.5 L282.6 77.8 Z M358.4 68.35 L362.5 77.15 L369.55 93.25 L370.3 95.1 L356.2 106.05 Q318.65 134 276.5 152.65 L273.85 153.8 Q264.55 157.65 254.8 160.2 L254.7 157.55 L256.15 151.55 Q258.85 141.35 262 131.3 Q266.85 116 270 108 L273.85 107.25 Q318.65 98.25 353.85 71.9 L356.2 70.1 L358.4 68.35 Z M379.35 119.15 L383.35 131.3 Q386.4 141.05 389.05 150.95 Q391.6 165.2 383.85 170.3 L376.45 173.1 Q366.3 175.8 356.2 177.45 Q338.65 180.3 321.35 179.9 L321.35 179.95 Q310.4 180.05 315.8 180.45 L292.45 179.15 Q329.85 168.15 356.2 144.5 Q366.65 135.15 375.9 123.65 L379.35 119.15 Z M321.35 8.35 L321.35 8.4 L321.1 8.5 L321.1 8.45 L321.35 8.35 Z" fill="#f5f5f5"/><path d="M346.3 44.95 L358.4 68.35 L356.2 70.1 L353.85 71.9 Q318.65 98.25 273.85 107.25 L270 108 L282.6 77.8 L286.6 76.5 Q298.65 72.65 310.05 67.25 Q329.1 58.25 346.3 44.95 Z M370.3 95.1 L379.35 119.15 L375.9 123.65 Q366.65 135.15 356.2 144.5 Q329.85 168.15 292.45 179.15 L277.65 177.4 L273.85 176.85 Q255.65 173.65 254.8 160.2 Q264.55 157.65 273.85 153.8 L276.5 152.65 Q318.65 134 356.2 106.05 L370.3 95.1 Z" fill="#d0effc"/></svg>