<svg xmlns="http://www.w3.org/2000/svg" viewBox="0 0 640 640"><path d="M386.25 352.3 Q403.7 334.8 428.5 334.8 Q453.25 334.8 470.75 352.3 Q488.25 369.8 488.25 394.55 Q488.25 419.35 470.75 436.8 Q453.25 454.3 428.5 454.3 Q403.7 454.3 386.25 436.8 Q368.75 419.35 368.75 394.55 Q368.75 369.8 386.25 352.3 M210.75 329.4 Q235.55 329.4 253.05 346.9 Q270.55 364.4 270.55 389.2 Q270.55 413.95 253.05 431.45 Q235.55 448.95 210.75 448.95 Q186 448.95 168.5 431.45 Q151 413.95 151 389.2 Q151 364.4 168.5 346.9 Q186 329.4 210.75 329.4 M380.35 357.85 Q320.25 338.7 265.5 357.85" fill="none" stroke="#000000" stroke-width="15.00" stroke-linecap="round" stroke-linejoin="round"/></svg>