<svg xmlns="http://www.w3.org/2000/svg" viewBox="0 0 640 640"><path d="M361.1 255.35 L362.5 254.5 Q462.5 195.5 603.1 202.25 Q630.45 304.35 622.45 390.65 Q612.25 417.5 584.55 435.75 Q530.25 471.55 469.6 461.55 Q408.95 451.55 355.1 394.55 L321.75 345.7 L288.5 394.55 Q234.65 451.55 174 461.55 Q113.35 471.55 59.05 435.75 Q31.35 417.5 21.15 390.65 Q13.15 304.35 40.5 202.25 Q180.35 195.5 280 253.85 L281.1 254.5 L282.5 255.3 L283.9 256.15 Q308.3 270.8 321.75 292.75 Q335.3 270.8 359.7 256.15 L361.1 255.35 Z M404.05 404.15 Q437.75 437.9 485.3 438.8 Q436.15 438.8 401.55 404.15 Q366.85 369.45 366.85 320.4 L366.85 318.8 L579.3 248.35 L579.7 248.85 L579.85 249 L369.35 318.8 L369.35 320.4 Q369.35 369.45 404.05 404.15 Z M579.85 249 L579.7 248.85 L579.3 248.35 L366.85 318.8 L366.85 320.4 Q366.85 369.45 401.55 404.15 Q436.15 438.8 485.3 438.8 L485.4 438.8 L486.55 438.8 L487.65 438.8 L487.8 438.8 Q536.85 438.8 571.5 404.15 Q606.15 369.45 606.15 320.4 Q606.15 279.65 582.2 248.85 L581.8 248.35 L579.85 249 Z M274.25 318.8 L61.8 248.35 L61.4 248.85 Q37.45 279.65 37.45 320.4 Q37.45 369.45 72.1 404.15 Q106.75 438.8 155.8 438.8 Q204.95 438.8 239.55 404.15 Q274.25 369.45 274.25 320.4 L274.25 318.8 Z" fill="#000000"/><path d="M361.1 255.35 L359.7 256.15 Q335.3 270.8 321.75 292.75 Q308.3 270.8 283.9 256.15 L282.5 255.3 L281.1 254.5 L280 253.85 Q180.35 195.5 40.5 202.25 Q13.15 304.35 21.15 390.65 Q31.35 417.5 59.05 435.75 Q113.35 471.55 174 461.55 Q234.65 451.55 288.5 394.55 L321.75 345.7 L355.1 394.55 Q408.95 451.55 469.6 461.55 Q530.25 471.55 584.55 435.75 Q612.25 417.5 622.45 390.65 Q630.45 304.35 603.1 202.25 Q462.5 195.5 362.5 254.5 M579.85 249 L579.7 248.85 L579.3 248.35 L366.85 318.8 L366.85 320.4 Q366.85 369.45 401.55 404.15 Q436.15 438.8 485.3 438.8 L485.4 438.8 L486.55 438.8 L487.65 438.8 M487.8 438.8 Q535.25 437.9 569 404.15 Q603.65 369.45 603.65 320.4 Q603.65 279.75 579.85 249 M61.8 248.35 L274.25 318.8 L274.25 320.4 Q274.25 369.45 239.55 404.15 Q204.95 438.8 155.8 438.8 Q106.75 438.8 72.1 404.15 Q37.45 369.45 37.45 320.4 Q37.45 279.65 61.4 248.85 L61.8 248.35" fill="none" stroke="#000000" stroke-width="15.00" stroke-linecap="round" stroke-linejoin="round"/></svg>