<svg xmlns="http://www.w3.org/2000/svg" viewBox="0 0 640 640"><path d="M403.1 437.85 Q410.85 443.7 419.15 448.35 Q410.85 443.7 403.1 437.85 Z M402.9 437.7 L403.1 437.85 L402.9 437.7 Z M402.75 437.6 L402.9 437.7 L402.75 437.6 Z M402.55 437.45 L402.75 437.6 L402.55 437.45 Z M402.35 437.3 L402.55 437.45 L402.35 437.3 Z M386.75 423.6 Q394.25 431.1 402.35 437.3 Q394.25 431.1 386.75 423.6 Z M344.75 322.1 Q344.75 381.55 386.75 423.6 Q344.75 381.55 344.75 322.1 Z M386.75 220.6 Q344.75 262.6 344.75 322.1 Q344.75 262.6 386.75 220.6 Z M488.25 178.55 Q428.8 178.55 386.75 220.6 Q428.8 178.55 488.25 178.55 Z M490.5 178.6 L488.25 178.55 L490.5 178.6 Z M554.55 194.3 Q525.6 179.05 490.5 178.6 Q525.6 179.05 554.55 194.3 Z M589.8 220.6 Q573.5 204.3 554.55 194.3 Q573.5 204.3 589.8 220.6 Z M631.85 322.1 Q631.85 262.6 589.8 220.6 Q631.85 262.6 631.85 322.1 Z M589.8 423.6 Q631.85 381.55 631.85 322.1 Q631.85 381.55 589.8 423.6 Z M491.25 465.6 Q548.85 464.55 589.8 423.6 Q548.85 464.55 491.25 465.6 Z M592.8 423.6 Q550.8 465.6 491.25 465.6 L491.15 465.6 L489.65 465.6 L488.95 465.6 L488.25 465.6 L487.9 465.6 Q467.75 465.15 449.65 459.85 L449.1 459.7 L448.9 459.65 Q433.3 455.75 419.15 448.35 Q400.1 438.35 383.7 421.95 Q352.05 390.25 344.4 348.6 Q341.8 335.05 341.7 320.45 L341.7 319.6 L341.7 318.7 L344.4 290.55 Q352.05 248.9 383.75 217.2 Q425.7 175.15 485.25 175.15 Q525.35 175.15 557.55 194.3 Q576.5 204.3 592.8 220.6 Q634.85 262.6 634.85 322.1 Q634.85 381.55 592.8 423.6 Z M472.9 303.1 Q467.4 308 465.35 315.65 Q463.8 321.65 464.95 327.25 Q465.75 331.1 467.85 334.75 Q469.2 337.1 470.9 339 Q473.9 342.4 477.9 344.45 L479.05 345.75 L483.2 347.2 L486.65 347.9 Q494.9 348.95 502.35 344.55 Q508.7 340.85 511.9 334.7 Q513.2 332.15 514 329.15 L514.8 325.2 L514.8 325.05 L514.95 323.9 Q515.6 316.2 511.55 309.25 Q506.35 300.35 496.15 297.65 Q491 296.3 486.2 296.95 Q481.45 297.55 476.95 300.1 Q474.75 301.45 472.9 303.1 Z M152.8 176.9 L152.9 176.9 L155.7 176.9 L155.8 176.9 Q215.35 176.9 257.35 218.95 Q299.4 260.95 299.4 320.45 Q299.4 379.9 257.35 421.95 Q215.35 463.95 155.8 463.95 L155.7 463.95 L154.3 463.95 L152.9 463.95 L152.8 463.95 Q95.3 462.9 54.3 421.95 Q12.3 379.9 12.3 320.45 Q12.3 260.95 54.3 218.95 Q95.3 177.95 152.8 176.9 Z M176 308.3 Q170.8 299.4 160.6 296.7 Q155.45 295.35 150.65 296 Q145.9 296.6 141.4 299.15 Q139.2 300.5 137.35 302.15 Q131.85 307.05 129.8 314.7 Q128.25 320.7 129.4 326.3 Q130.2 330.15 132.3 333.8 Q133.65 336.15 135.35 338.05 Q140.2 343.55 147.75 345.55 L151.2 346.25 Q159.45 347.3 166.9 342.9 Q173.25 339.2 176.45 333.05 Q177.75 330.5 178.55 327.5 L179.4 322.95 Q180.05 315.25 176 308.3 Z M254.35 218.95 Q213.4 177.95 155.8 176.9 Q213.4 177.95 254.35 218.95 Z M296.4 320.45 Q296.4 260.95 254.35 218.95 Q296.4 260.95 296.4 320.45 Z M254.35 421.95 Q296.4 379.9 296.4 320.45 Q296.4 379.9 254.35 421.95 Z M155.8 463.95 Q213.4 462.9 254.35 421.95 Q213.4 462.9 155.8 463.95 Z" fill="#ffffff"/><path d="M465.35 315.65 Q467.4 308 472.9 303.1 Q474.75 301.45 476.95 300.1 Q481.45 297.55 486.2 296.95 Q491 296.3 496.15 297.65 Q506.35 300.35 511.55 309.25 Q515.6 316.2 514.95 323.9 L514.8 325.05 L514.8 325.2 L514 329.15 Q513.2 332.15 511.9 334.7 Q508.7 340.85 502.35 344.55 Q494.9 348.95 486.65 347.9 L483.2 347.2 L479.05 345.75 L477.9 344.45 Q473.9 342.4 470.9 339 Q469.2 337.1 467.85 334.75 Q465.75 331.1 464.95 327.25 Q463.8 321.65 465.35 315.65 Z M160.6 296.7 Q170.8 299.4 176 308.3 Q180.05 315.25 179.4 322.95 L178.55 327.5 Q177.75 330.5 176.45 333.05 Q173.25 339.2 166.9 342.9 Q159.45 347.3 151.2 346.25 L147.75 345.55 Q140.2 343.55 135.35 338.05 Q133.65 336.15 132.3 333.8 Q130.2 330.15 129.4 326.3 Q128.25 320.7 129.8 314.7 Q131.85 307.05 137.35 302.15 Q139.2 300.5 141.4 299.15 Q145.9 296.6 150.65 296 Q155.45 295.35 160.6 296.7 Z" fill="#000000"/><path d="M419.15 448.35 Q410.85 443.7 403.1 437.85 L402.9 437.7 L402.75 437.6 L402.55 437.45 L402.35 437.3 Q394.25 431.1 386.75 423.6 Q344.75 381.55 344.75 322.1 Q344.75 262.6 386.75 220.6 Q428.8 178.55 488.25 178.55 L490.5 178.6 Q525.6 179.05 554.55 194.3 Q573.5 204.3 589.8 220.6 Q631.85 262.6 631.85 322.1 Q631.85 381.55 589.8 423.6 Q548.85 464.55 491.25 465.6 M487.9 465.6 L488.25 465.6 L488.95 465.6 L489.65 465.6 L491.15 465.6 M152.8 176.9 L152.9 176.9 L155.7 176.9 M155.7 463.95 L154.3 463.95 L152.9 463.95 L152.8 463.95 Q93.35 463.95 51.3 421.95 Q9.3 379.9 9.3 320.45 Q9.3 260.95 51.3 218.95 Q93.35 176.9 152.8 176.9 M155.8 176.9 Q213.4 177.95 254.35 218.95 Q296.4 260.95 296.4 320.45 Q296.4 379.9 254.35 421.95 Q213.4 462.9 155.8 463.95 M487.9 465.6 L484.9 465.6 Q464.75 465.15 446.65 459.85 L446.1 459.7 L445.9 459.65 L445.7 459.6 L445.15 459.4 Q431.6 455.25 419.15 448.35 M338.45 344.5 L301.25 344.5" fill="none" stroke="#000000" stroke-width="15.00" stroke-linecap="round" stroke-linejoin="round"/></svg>