<svg xmlns="http://www.w3.org/2000/svg" viewBox="0 0 640 640"><path d="M383.75 217.2 Q425.7 175.15 485.25 175.15 Q544.7 175.15 586.75 217.2 Q628.75 259.2 628.75 318.7 Q628.75 378.2 586.75 420.2 Q544.7 462.2 485.25 462.2 Q425.7 462.2 383.75 420.2 Q341.7 378.2 341.7 318.7 Q341.7 259.2 383.75 217.2 M54.3 218.95 Q96.35 176.9 155.8 176.9 Q215.35 176.9 257.35 218.95 Q299.4 260.95 299.4 320.45 Q299.4 379.9 257.35 421.95 Q215.35 463.95 155.8 463.95 Q96.35 463.95 54.3 421.95 Q12.3 379.9 12.3 320.45 Q12.3 260.95 54.3 218.95 M341.45 344.5 L304.25 344.5" fill="none" stroke="#000000" stroke-width="15.00" stroke-linecap="round" stroke-linejoin="round"/></svg>