<svg xmlns="http://www.w3.org/2000/svg" viewBox="0 0 640 640"><path d="M490.2 237 Q505.25 237 519.05 241.05 Q505.25 237 490.2 237 Z M489.55 237 L490.2 237 L489.55 237 Z M479.65 237.45 L489.55 237 L479.65 237.45 Z M420.25 262.85 Q444.7 240.65 479.65 237.45 Q444.7 240.65 420.25 262.85 Z M409.15 274.45 Q414.4 268.1 420.25 262.85 Q414.4 268.1 409.15 274.45 Z M393.8 298.35 Q399.3 286 409.15 274.45 Q399.3 286 393.8 298.35 Z M519.05 241.05 L508.6 239.85 Q497.15 239.35 485.2 242.5 Q454.65 250.55 439.05 277.25 Q423.3 304.25 431.35 334.8 Q436.4 354.05 449.15 367.45 Q499.3 339.95 567.65 357.3 L569.85 353.6 Q585.45 326.75 577.45 296.4 Q575.65 289.65 573 283.6 Q569.35 275.45 564.05 268.6 Q555.55 257.6 542.75 249.95 Q531.2 243.35 519.05 241.05 Z M566.8 271.5 L564.05 268.6 L566.8 271.5 Z M585.25 300.4 Q578.7 284.5 566.8 271.5 Q578.7 284.5 585.25 300.4 Z M587.85 307.6 L585.25 300.4 L587.85 307.6 Z M592.8 331.35 Q591.55 318.75 587.85 307.6 Q591.55 318.75 592.8 331.35 Z M592.45 356.25 Q593.95 344.2 592.8 331.35 Q593.95 344.2 592.45 356.25 Z M383.75 224.8 Q425.7 182.75 485.25 182.75 Q544.7 182.75 586.75 224.8 Q628.75 266.8 628.75 326.3 Q628.75 385.8 586.75 427.8 Q544.7 469.8 485.25 469.8 Q425.7 469.8 383.75 427.8 Q341.7 385.8 341.7 326.3 Q341.7 266.8 383.75 224.8 Z M161.25 237.45 Q182.1 239.35 199.25 248 Q182.1 239.35 161.25 237.45 Z M85.35 260.85 Q118.35 233.55 161.25 237.45 Q118.35 233.55 85.35 260.85 Z M55.65 300.4 Q65 277.65 85.35 260.85 Q65 277.65 55.65 300.4 Z M48.1 331.35 Q49.8 314.7 55.65 300.4 Q49.8 314.7 48.1 331.35 Z M48.45 356.25 Q46.95 344.2 48.1 331.35 Q46.95 344.2 48.45 356.25 Z M247.1 317 Q247 299.3 238.3 282.9 L236.65 279.95 Q223.35 257.2 199.25 248 Q195.05 246.4 190.5 245.2 L184.05 243.75 Q157.2 238.85 133 252.6 Q106.35 268.55 98.3 299.1 Q90.8 327.35 103.85 352.65 Q162.35 349.3 208.65 384.05 L209.45 383.55 Q236.35 367.9 244.35 337.5 Q247.1 327.05 247.1 317 Z M247.1 298.35 Q243.6 290.45 238.3 282.9 Q243.6 290.45 247.1 298.35 Z M54.3 226.55 Q96.35 184.5 155.8 184.5 Q215.35 184.5 257.35 226.55 Q299.4 268.55 299.4 328.05 Q299.4 387.5 257.35 429.55 Q215.35 471.55 155.8 471.55 Q96.35 471.55 54.3 429.55 Q12.3 387.5 12.3 328.05 Q12.3 268.55 54.3 226.55 Z" fill="#ffffff"/><path d="M508.6 239.85 L519.05 241.05 Q537.25 246.4 553.25 258.95 L555.6 260.85 Q560.1 264.6 564.05 268.6 Q569.35 275.45 573 283.6 Q575.65 289.65 577.45 296.4 Q585.45 326.75 569.85 353.6 L567.65 357.3 Q499.3 339.95 449.15 367.45 Q436.4 354.05 431.35 334.8 Q423.3 304.25 439.05 277.25 Q454.65 250.55 485.2 242.5 Q497.15 239.35 508.6 239.85 Z M238.3 282.9 Q247 299.3 247.1 317 Q247.1 327.05 244.35 337.5 Q236.35 367.9 209.45 383.55 L208.65 384.05 Q162.35 349.3 103.85 352.65 Q90.8 327.35 98.3 299.1 Q106.35 268.55 133 252.6 Q157.2 238.85 184.05 243.75 L190.5 245.2 Q195.05 246.4 199.25 248 Q217.65 257.3 231.75 274.45 Q235.3 278.6 238.3 282.9 Z" fill="#5a2f0d"/><path d="M564.05 268.6 Q560.1 264.6 555.6 260.85 L553.25 258.95 Q537.25 246.4 519.05 241.05 Q531.2 243.35 542.75 249.95 Q555.55 257.6 564.05 268.6 Z M199.25 248 Q223.35 257.2 236.65 279.95 L238.3 282.9 Q235.3 278.6 231.75 274.45 Q217.65 257.3 199.25 248 Z" fill="#663300"/><path d="M519.05 241.05 Q505.25 237 490.2 237 L489.55 237 L479.65 237.45 Q444.7 240.65 420.25 262.85 Q414.4 268.1 409.15 274.45 Q399.3 286 393.8 298.35 M564.05 268.6 Q560.1 264.6 555.6 260.85 L553.25 258.95 Q537.25 246.4 519.05 241.05 M564.05 268.6 L566.8 271.5 Q578.7 284.5 585.25 300.4 L587.85 307.6 Q591.55 318.75 592.8 331.35 Q593.95 344.2 592.45 356.25 M383.75 224.8 Q425.7 182.75 485.25 182.75 Q544.7 182.75 586.75 224.8 Q628.75 266.8 628.75 326.3 Q628.75 385.8 586.75 427.8 Q544.7 469.8 485.25 469.8 Q425.7 469.8 383.75 427.8 Q341.7 385.8 341.7 326.3 Q341.7 266.8 383.75 224.8 M199.25 248 Q182.1 239.35 161.25 237.45 Q118.35 233.55 85.35 260.85 Q65 277.65 55.65 300.4 Q49.8 314.7 48.1 331.35 Q46.95 344.2 48.45 356.25 M238.3 282.9 Q243.6 290.45 247.1 298.35 M54.3 226.55 Q96.35 184.5 155.8 184.5 Q215.35 184.5 257.35 226.55 Q299.4 268.55 299.4 328.05 Q299.4 387.5 257.35 429.55 Q215.35 471.55 155.8 471.55 Q96.35 471.55 54.3 429.55 Q12.3 387.5 12.3 328.05 Q12.3 268.55 54.3 226.55 M238.3 282.9 Q235.3 278.6 231.75 274.45 Q217.65 257.3 199.25 248 M341.45 352.1 L304.25 352.1" fill="none" stroke="#000000" stroke-width="15.00" stroke-linecap="round" stroke-linejoin="round"/></svg>