<svg xmlns="http://www.w3.org/2000/svg" viewBox="0 0 640 640"><path d="M386.1 256.7 Q389.7 253.05 393.3 250.65 Q396.3 249.45 398.7 248.85 Q403.5 247.05 408.95 247.05 L555.55 247.05 Q571.15 247.05 582.6 258.5 Q584.4 260.3 585.6 263.3 Q588.6 266.3 590.4 270.5 Q591 272.3 592.8 284.3 L592.8 358.85 Q592.8 370.85 586.8 380.45 L581.4 385.85 Q579.6 388.25 576.6 390.1 Q567.55 397.3 554.95 397.3 L414.35 397.3 Q398.1 397.3 387.3 385.85 Q375.9 374.45 375.9 358.85 L375.9 346.2 L375.9 342 L376.5 280.1 L376.5 275.3 Q377.1 274.1 377.1 272.9 Q377.7 268.7 379.5 265.1 Q380.1 264.5 380.1 263.9 Q383.1 259.7 386.1 256.7 Z" fill="#000099" fill-opacity="0.400"/><path d="M393.3 250.65 Q389.7 253.05 386.1 256.7 Q383.1 259.7 380.1 263.9 Q380.1 264.5 379.5 265.1 Q377.7 268.7 377.1 272.9 Q377.1 274.1 376.5 275.3 L376.5 280.1 L375.9 342 L375.9 346.2 L375.9 358.85 Q375.9 374.45 387.3 385.85 Q398.1 397.3 414.35 397.3 L554.95 397.3 Q567.55 397.3 576.6 390.1 Q579.6 388.25 581.4 385.85 L586.8 380.45 Q592.8 370.85 592.8 358.85 L592.8 284.3 Q591 272.3 590.4 270.5 Q588.6 266.3 585.6 263.3 Q584.4 260.3 582.6 258.5 Q571.15 247.05 555.55 247.05 L408.95 247.05 Q403.5 247.05 398.7 248.85 Q396.3 249.45 393.3 250.65 Z M609.65 342 L609.65 361.25 L610.25 390.7 Q610.25 394.9 609.05 399.1 Q607.25 406.9 599.4 413.5 Q588 423.15 571.75 423.15 L380.1 423.15 Q340.45 342 323 328.8 Q320.6 327 318.8 326.4 Q301.35 337.2 259.9 421.9 L68.2 421.9 Q52 421.9 40.6 412.3 Q32.75 405.7 30.95 397.9 Q29.75 393.7 29.75 389.45 L30.35 360.05 L30.35 340.8 L29.75 217 L610.25 217 L609.65 342 Z M57.4 257.3 Q55.6 259.1 54.4 262.1 Q51.4 265.1 49.6 269.3 Q49 271.1 47.2 283.1 L47.2 357.65 Q47.2 369.65 53.2 379.25 L58.6 384.65 Q60.4 387.05 63.4 388.85 Q72.4 396.1 85.05 396.1 L225.65 396.1 Q241.9 396.1 252.7 384.65 Q264.1 373.25 264.1 357.65 L264.1 345 L264.1 340.8 L263.5 278.9 L263.5 274.1 Q262.9 272.9 262.9 271.7 Q262.3 267.5 260.5 263.9 Q259.9 263.3 259.9 262.7 Q256.9 258.5 253.9 255.45 Q250.3 251.85 246.7 249.45 L241.3 247.65 Q236.45 245.85 231.05 245.85 L84.45 245.85 Q68.8 245.85 57.4 257.3 Z" fill="#f5f5f5"/><path d="M54.4 262.1 Q55.6 259.1 57.4 257.3 Q68.8 245.85 84.45 245.85 L231.05 245.85 Q236.45 245.85 241.3 247.65 L246.7 249.45 Q250.3 251.85 253.9 255.45 Q256.9 258.5 259.9 262.7 Q259.9 263.3 260.5 263.9 Q262.3 267.5 262.9 271.7 Q262.9 272.9 263.5 274.1 L263.5 278.9 L264.1 340.8 L264.1 345 L264.1 357.65 Q264.1 373.25 252.7 384.65 Q241.9 396.1 225.65 396.1 L85.05 396.1 Q72.4 396.1 63.4 388.85 Q60.4 387.05 58.6 384.65 L53.2 379.25 Q47.2 369.65 47.2 357.65 L47.2 283.1 Q49 271.1 49.6 269.3 Q51.4 265.1 54.4 262.1 Z" fill="#bd0000" fill-opacity="0.400"/></svg>