<svg xmlns="http://www.w3.org/2000/svg" viewBox="0 0 640 640"><path d="M368.7 245.9 Q360.05 254.6 360.05 266.9 L360.05 371.45 Q360.05 383.75 368.7 392.4 Q377.4 401.1 389.7 401.1 L582.5 401.1 Q594.8 401.1 603.45 392.4 Q612.15 383.75 612.15 371.45 L612.15 266.9 Q612.15 254.6 603.45 245.9 Q594.8 237.25 582.5 237.25 L389.7 237.25 Q377.4 237.25 368.7 245.9 M39 245.9 Q30.35 254.6 30.35 266.9 L30.35 371.45 Q30.35 383.75 39 392.4 Q47.7 401.1 60 401.1 L252.8 401.1 Q265.1 401.1 273.75 392.4 Q282.45 383.75 282.45 371.45 L282.45 266.9 Q282.45 254.6 273.75 245.9 Q265.1 237.25 252.8 237.25 L60 237.25 Q47.7 237.25 39 245.9 M358.05 355.95 L283.2 355.95" fill="none" stroke="#000000" stroke-width="15.00" stroke-linecap="round" stroke-linejoin="round"/></svg>