<svg xmlns="http://www.w3.org/2000/svg" viewBox="0 0 640 640"><path d="M498.95 177.65 L498.95 177.45 Q526.9 179.5 554.05 186.3 Q595.15 196.55 631.75 217.9 L631.85 261.15 L610.25 252.2 Q559.3 215.1 496.5 218.75 Q432.9 223 384.75 264.45 Q356.05 289.2 339.95 323.65 Q339.9 259.9 386.15 216.65 Q427.75 177.85 484.6 176.9 L493.4 178.2 L524.65 187.2 L525.9 183.15 L527.75 183.45 L525.7 182.85 L498.95 177.65 Z M111.6 183.45 L113.45 183.15 L114.7 187.2 L145.95 178.2 L154.75 176.9 Q211.6 177.85 253.2 216.65 Q299.45 259.9 299.4 323.65 Q283.3 289.2 254.6 264.45 Q206.45 223 142.85 218.75 Q80.05 215.1 29.1 252.2 L7.5 261.15 L7.6 217.9 Q44.2 196.55 85.3 186.3 Q112.45 179.5 140.4 177.45 L140.4 177.65 L113.65 182.85 L111.6 183.45 Z" fill="#000000"/><path d="M498.95 177.45 L486.85 176.55 L489.55 177 L498.95 177.65 L525.7 182.85 L527.75 183.45 L525.9 183.15 M524.65 187.2 L493.4 178.2 L484.6 176.9 Q427.75 177.85 386.15 216.65 Q339.9 259.9 339.95 323.65 Q356.05 289.2 384.75 264.45 Q432.9 223 496.5 218.75 Q559.3 215.1 610.25 252.2 L631.85 261.15 L631.75 217.9 Q595.15 196.55 554.05 186.3 Q526.9 179.5 498.95 177.45 M484.6 176.9 L488.6 177 L486.85 176.55 M488.6 177 L489.55 177 L514.4 181.2 L525.7 182.85 M493.4 178.2 L488.6 177 M514.4 181.2 L525.9 183.15 M493.4 178.2 L514.4 181.2 M627 323.3 L626.9 324.15 L627 323.45 L627 323.3 M627 323.3 L627 323.1 L627 322.75 L627 322.6 L626.9 320.45 L627.1 314.7 Q627.85 280.9 610.25 252.2 M626.9 324.15 Q625.05 360.1 606.1 390.55 Q571.8 445.75 507.7 457.5 Q443.1 469.45 391.8 427.7 Q342.5 387.5 339.95 323.65 M627 323.1 L631.85 261.15 M113.45 183.15 L111.6 183.45 L113.65 182.85 L140.4 177.65 L149.8 177 L150.75 177 L152.5 176.55 L149.8 177 L124.95 181.2 L113.65 182.85 M140.4 177.45 Q112.45 179.5 85.3 186.3 Q44.2 196.55 7.6 217.9 L7.5 261.15 L29.1 252.2 Q80.05 215.1 142.85 218.75 Q206.45 223 254.6 264.45 Q283.3 289.2 299.4 323.65 Q299.45 259.9 253.2 216.65 Q211.6 177.85 154.75 176.9 L145.95 178.2 L114.7 187.2 M113.45 183.15 L124.95 181.2 L145.95 178.2 L150.75 177 L154.75 176.9 M152.5 176.55 L140.4 177.45 M12.4 322.75 L12.35 323.1 L12.35 323.3 L12.4 322.75 M12.4 322.75 L12.45 320.45 L12.25 314.7 Q11.5 280.9 29.1 252.2 M299.4 323.65 Q296.85 387.5 247.55 427.7 Q196.25 469.45 131.65 457.5 Q67.55 445.75 33.25 390.55 Q14.3 360.1 12.45 324.15 L12.35 323.45 L12.35 323.3 L12.45 324.15 M12.35 323.1 L7.5 261.15 M335.1 344.5 L304.25 344.5" fill="none" stroke="#000000" stroke-width="15.00" stroke-linecap="round" stroke-linejoin="round"/></svg>