<svg xmlns="http://www.w3.org/2000/svg" viewBox="0 0 640 640"><path d="M248.5 500.35 L251.7 496.45 L254.05 494.6 Q270.05 482.65 290.35 483.65 L290.4 483.65 Q297.25 484 304.7 485.8 Q309.9 487.05 315.4 489.05 L318.15 490.1 L319.25 490.5 Q328.85 494.4 339.2 500.45 L339.2 500.5 L341.45 501.8 Q341.1 505.2 339.95 506.9 Q336.45 512 324.95 512 Q307 512 296.85 500.8 L294.25 497.6 Q292.5 502.35 287.5 508.15 Q278.4 518.7 267.35 518.7 Q257.4 518.7 251.95 509.55 Q250.25 506.6 249.15 503.1 L248.5 500.35 Z" fill="#ffffff"/><path d="M341.45 501.8 Q357.75 511.55 375.8 526.5 Q309.55 515.65 229.85 539.55 Q234.2 518.5 248.5 500.35 L249.15 503.1 Q250.25 506.6 251.95 509.55 Q257.4 518.7 267.35 518.7 Q278.4 518.7 287.5 508.15 Q292.5 502.35 294.25 497.6 L296.85 500.8 Q307 512 324.95 512 Q336.45 512 339.95 506.9 Q341.1 505.2 341.45 501.8 Z" fill="#db4242"/><path d="M219 543.3 Q223.25 513.95 244.5 489.55 L245.1 488.95 L248.05 486.6 Q266.95 472.5 290.85 473.65 Q305.5 474.3 322.15 480.9 L322.35 481 L322.75 481.15 Q333.1 485.3 344.25 491.85 L344.2 491.85 Q367.3 505.2 384.9 520.1 Q402.35 534.95 386.8 538.8 Q314.95 523.1 226.15 551.15 L226.05 551.15 L225.35 551.35 Q223.35 551.95 221.55 550.95 Q219.7 549.9 219.15 547.95 Q218.8 546.65 219 543.5 L219 543.3 Z M251.7 496.45 L248.5 500.35 Q234.2 518.5 229.85 539.55 Q309.55 515.65 375.8 526.5 Q357.75 511.55 341.45 501.8 L339.2 500.5 L339.2 500.45 Q328.85 494.4 319.25 490.5 L318.15 490.1 L315.4 489.05 Q309.9 487.05 304.7 485.8 Q297.25 484 290.4 483.65 L290.35 483.65 Q270.05 482.65 254.05 494.6 L251.7 496.45 Z" fill="#663300"/></svg>