<svg xmlns="http://www.w3.org/2000/svg" viewBox="0 0 640 640"><path d="M242.3 486.65 Q243.55 483.75 246.4 482.6 Q249.25 481.45 252.15 482.65 Q255 483.9 256.15 486.75 Q258.4 492.25 263 496.9 L262.95 496.85 Q272.05 505.9 284.75 505.9 Q297.45 505.9 306.35 496.9 L306.4 496.85 Q310.4 492.85 312.85 488.15 Q314.2 485.55 316.95 484.55 L322.4 484.7 Q325.1 485.85 326.35 488.5 Q328.4 493 332.25 496.9 L332.2 496.85 Q341.3 505.9 354 505.9 Q366.7 505.9 375.65 496.9 L375.65 496.85 Q380.3 492.2 382.65 486.7 Q383.85 483.8 386.7 482.65 Q389.55 481.45 392.45 482.65 Q395.3 483.85 396.5 486.7 Q397.65 489.55 396.5 492.45 Q393.1 500.6 386.3 507.45 L386.25 507.45 Q372.9 520.9 354 520.9 Q335.1 520.9 321.6 507.5 L321.6 507.45 L319.35 505 L317 507.45 L317.05 507.45 Q303.75 520.9 284.75 520.9 Q265.85 520.9 252.35 507.5 L252.35 507.45 Q245.5 500.55 242.25 492.35 Q241.1 489.5 242.3 486.65 Z" fill="#000000"/></svg>