<svg xmlns="http://www.w3.org/2000/svg" viewBox="0 0 640 640"><path d="M233 505.3 L232.7 504.6 Q230.45 499.9 229 495.05 Q227.45 490.15 226.75 485 Q322.5 477.1 421.9 487.25 L422.5 487.35 L422.5 487.4 L421.45 492.1 L420.05 496.7 Q418.45 501.3 416.25 505.65 L414.6 505.65 Q376.2 502.7 337.55 502.15 L326.65 502.05 L313.75 502 L253.9 504.15 L236.5 505.2 L236.15 505.2 L233.05 505.45 L233 505.3 Z" fill="#ffffff"/><path d="M247.7 525.05 Q270 510.15 313.75 510.45 L326.65 510.85 Q367 510.25 399.3 527.45 L394.95 531.2 L387.45 536.8 Q360.65 555.05 324.65 555.05 L314.6 554.7 L304.9 553.6 L297.85 552.25 Q273.6 546.9 254.45 531.2 Q250.8 528.2 247.7 525.05 Z" fill="#db4242"/><path d="M220.8 475.5 Q319.9 466.8 422.85 477.3 L428.75 477.95 L432.1 479.8 Q433.4 481.4 433.2 483.45 L432.4 488.8 L431.05 494.8 L429.45 500 Q427.75 505 425.35 509.75 L424.55 511.25 Q417.75 525.25 407.9 533.05 L407.3 533.7 L405.9 534.95 L401.3 538.95 L401.3 538.9 L400.95 539.2 L400.75 539.35 L393.45 544.8 L392.8 545.25 Q363.75 565.05 324.65 565.05 L313.45 564.65 L303.7 563.5 L303.05 563.4 L296 562.1 Q269.2 556.2 248.1 538.95 L248.05 538.9 Q244.2 535.7 240.9 532.3 L240.65 532.1 L240.55 532 L240.05 531.45 L239.75 531.15 L227.85 516.3 L227.6 515.9 Q225.4 512.55 223.7 509.1 L223.4 508.3 Q221.05 503.25 219.45 498 Q217.7 492.25 216.85 486.3 L216.25 480.85 Q216.05 478.8 217.4 477.25 L220.8 475.5 Z M232.7 504.6 L233 505.3 L233.05 505.45 L236.15 505.2 L236.5 505.2 L253.9 504.15 L313.75 502 L326.65 502.05 L337.55 502.15 Q376.2 502.7 414.6 505.65 L416.25 505.65 Q418.45 501.3 420.05 496.7 L421.45 492.1 L422.5 487.4 L422.5 487.35 L421.9 487.25 Q322.5 477.1 226.75 485 Q227.45 490.15 229 495.05 Q230.45 499.9 232.7 504.6 Z M313.75 510.45 Q270 510.15 247.7 525.05 Q250.8 528.2 254.45 531.2 Q273.6 546.9 297.85 552.25 L304.9 553.6 L314.6 554.7 L324.65 555.05 Q360.65 555.05 387.45 536.8 L394.95 531.2 L399.3 527.45 Q367 510.25 326.65 510.85 L313.75 510.45 Z" fill="#000000"/></svg>