<svg xmlns="http://www.w3.org/2000/svg" viewBox="0 0 640 640"><path d="M315.7 478.55 L314.85 478.3 L315.7 475.4 L316.1 475.4 L315.85 475.4 L315.7 478.55 Z M248.5 500.35 L251.7 496.45 L254.05 494.6 Q270.05 482.65 290.35 483.65 L290.4 483.65 Q297.25 484 304.7 485.8 L310.35 487.35 L311.6 487.75 L311.7 487.8 L314.1 488.6 L314.2 488.65 L318.1 490.05 Q318.6 490.35 319.25 490.5 Q328.85 494.4 339.2 500.45 L339.2 500.5 L341.45 501.8 Q341.1 505.2 339.95 506.9 Q336.45 512 324.95 512 Q307 512 296.85 500.8 L294.25 497.6 Q292.5 502.35 287.5 508.15 Q278.4 518.7 267.35 518.7 Q257.4 518.7 251.95 509.55 Q250.25 506.6 249.15 503.1 L248.5 500.35 Z" fill="#ffffff"/><path d="M341.45 501.8 Q357.75 511.55 375.8 526.5 Q309.55 515.65 229.85 539.55 Q234.2 518.5 248.5 500.35 L249.15 503.1 Q250.25 506.6 251.95 509.55 Q257.4 518.7 267.35 518.7 Q278.4 518.7 287.5 508.15 Q292.5 502.35 294.25 497.6 L296.85 500.8 Q307 512 324.95 512 Q336.45 512 339.95 506.9 Q341.1 505.2 341.45 501.8 Z" fill="#db4242"/><path d="M314.7 478.25 L314.85 478.3 L315.7 478.55 L317.55 479.2 L317.45 479.2 L322.15 480.9 L322.25 480.95 L322.75 481.15 Q333.1 485.3 344.25 491.85 L344.2 491.85 Q367.3 505.2 393.75 528.8 L395 530.5 Q396.4 531.15 397.25 532.55 Q398.25 534.35 397.75 536.35 Q397.2 538.35 395.4 539.4 Q393.6 540.4 391.6 539.9 L389.15 539.35 L388.9 539.3 Q316.25 522.7 226.15 551.15 L226.05 551.15 L225.35 551.35 Q223.35 551.95 221.55 550.95 Q219.7 549.9 219.15 547.95 Q218.75 546.55 219.1 545.3 Q218.85 544.3 219 543.3 Q223.25 513.95 244.5 489.55 L245.1 488.95 L248.05 486.6 Q266.95 472.5 290.85 473.65 Q302.15 474.15 314.65 478.25 L314.7 478.25 Z M251.7 496.45 L248.5 500.35 Q234.2 518.5 229.85 539.55 Q309.55 515.65 375.8 526.5 Q357.75 511.55 341.45 501.8 L339.2 500.5 L339.2 500.45 Q328.85 494.4 319.25 490.5 Q318.6 490.35 318.1 490.05 L314.2 488.65 L314.1 488.6 L311.7 487.8 L311.6 487.75 L310.35 487.35 L304.7 485.8 Q297.25 484 290.4 483.65 L290.35 483.65 Q270.05 482.65 254.05 494.6 L251.7 496.45 Z" fill="#000000"/></svg>