<svg xmlns="http://www.w3.org/2000/svg" viewBox="0 0 640 640"><path d="M265.95 486.25 Q289.85 463.25 323.25 463.25 Q357.65 463.25 381.9 487.5 Q320.5 460.9 265.95 486.25 Z" fill="#351b01"/><path d="M381.9 487.5 Q385.95 491.55 389.35 495.9 L389.4 495.9 Q405.15 516.15 406.1 542.6 Q325.1 503.4 240.65 540.4 Q242.1 515.3 257.25 495.9 Q260.6 491.55 264.65 487.5 L265.95 486.25 Q320.5 460.9 381.9 487.5 Z" fill="#db4242"/><path d="M389.35 495.9 Q385.95 491.55 381.9 487.5 Q357.65 463.25 323.25 463.25 Q289.85 463.25 265.95 486.25 L264.65 487.5 Q260.6 491.55 257.25 495.9 Q242.1 515.3 240.65 540.4 Q325.1 503.4 406.1 542.6 Q405.15 516.15 389.4 495.9 L389.35 495.9 Z M249.35 489.75 Q253.1 484.95 257.55 480.45 L257.6 480.4 Q284.8 453.25 323.25 453.25 Q361.75 453.25 388.95 480.45 Q393.45 484.95 397.25 489.7 L397.25 489.75 Q416.15 513.95 416.15 546.1 L416.1 548.7 Q413 556.65 403.75 552.55 Q322.45 513.4 241 550.95 Q232.9 554.4 230.45 549.05 L230.45 548.55 L230.45 547.9 L230.45 546.1 Q230.45 513.95 249.35 489.75 Z" fill="#663300"/></svg>