<svg xmlns="http://www.w3.org/2000/svg" viewBox="0 0 640 640"><path d="M274.25 495.35 Q258.7 489.8 257.2 478.2 Q256.65 472.95 258.9 468.2 L295.1 478.4 L297.85 479.5 L298.65 479.4 L350.55 494.05 Q345.85 499.25 340.4 499.25 Q335.05 499.25 330.9 497.1 Q325.7 500.75 317.45 501.05 L316.15 501.05 Q301.8 501.2 296 493.55 Q287.75 499.8 275.5 495.8 L274.25 495.35 Z" fill="#ffffff"/><path d="M263.6 502.9 Q268.85 499.15 274.7 496.15 Q275 495.95 275.5 495.8 Q287.75 499.8 296 493.55 Q301.8 501.2 316.15 501.05 L317.45 501.05 Q325.7 500.75 330.9 497.1 Q335.05 499.25 340.4 499.25 Q345.85 499.25 350.55 494.05 L386.5 504.2 Q381.75 512.3 374.75 519.4 L374.7 519.45 Q354.2 539.75 325.4 539.75 Q296.5 539.75 276.05 519.45 L276 519.4 Q268.75 511.95 264 503.55 L263.6 502.95 L263.6 502.9 Z" fill="#db4242"/><path d="M255.8 467.3 L258.9 468.2 Q256.65 472.95 257.2 478.2 Q258.7 489.8 274.25 495.35 L274.7 496.15 Q268.85 499.15 263.6 502.9 Q255.75 488.2 255.75 470.15 L255.8 467.3 Z" fill="#351b01"/><path d="M245.75 470.15 Q245.75 465.15 246.25 460.35 Q246.4 458.8 247.35 457.65 Q248.25 456.5 249.7 456.05 L252.55 456 L395.15 496.25 Q396.6 496.65 397.6 497.8 Q398.55 498.9 398.75 500.4 Q398.95 501.85 398.35 503.2 Q392.4 515.8 381.8 526.5 Q358.35 549.75 325.4 549.75 Q292.35 549.75 268.95 526.5 L268.9 526.45 Q260.9 518.3 255.65 509.1 L255.05 508.2 Q245.75 491.1 245.75 470.15 Z M258.9 468.2 L255.8 467.3 L255.75 470.15 Q255.75 488.2 263.6 502.9 L263.6 502.95 L264 503.55 Q268.75 511.95 276 519.4 L276.05 519.45 Q296.5 539.75 325.4 539.75 Q354.2 539.75 374.7 519.45 L374.75 519.4 Q381.75 512.3 386.5 504.2 L350.55 494.05 L298.65 479.4 L295.1 478.4 L258.9 468.2 Z" fill="#663300"/></svg>