<svg xmlns="http://www.w3.org/2000/svg" viewBox="0 0 640 640"><path d="M295.65 479.25 L259.8 469.1 Q257.5 473.9 258.1 479.15 Q259.6 490.75 275.15 496.3 Q275.8 496.45 276.4 496.75 L275.6 497.1 Q269.75 500.1 264.5 503.9 L264.9 504.5 Q269.65 512.9 276.9 520.35 L276.95 520.4 Q297.4 540.75 326.25 540.75 Q355.1 540.75 375.6 520.4 L375.65 520.35 Q382.7 513.2 387.4 505.15 L351.5 495 L299.6 480.35 L295.65 479.25 Z M246.65 471.1 Q246.65 466.1 247.15 461.3 Q247.3 459.75 248.25 458.6 Q249.15 457.45 250.6 457 L253.45 456.95 L396.05 497.2 Q397.5 497.6 398.5 498.75 Q399.45 499.85 399.65 501.35 Q399.85 502.8 399.25 504.15 Q393.3 516.75 382.7 527.45 Q359.25 550.75 326.25 550.75 Q293.25 550.75 269.85 527.45 L269.8 527.4 Q261.8 519.25 256.55 510.05 L255.95 509.15 L255.4 508.1 Q246.65 491.45 246.65 471.1 Z" fill="#000000"/><path d="M259.8 469.1 L295.65 479.25 L298.75 480.45 L299.6 480.35 L351.5 495 Q346.75 500.2 341.3 500.2 Q335.95 500.2 331.8 498.05 Q326.6 501.7 318.35 502 L317.05 502 Q302.7 502.15 296.9 494.55 Q288.65 500.75 276.4 496.75 Q275.8 496.45 275.15 496.3 Q259.6 490.75 258.1 479.15 Q257.5 473.9 259.8 469.1 Z" fill="#ffffff"/><path d="M276.4 496.75 Q288.65 500.75 296.9 494.55 Q302.7 502.15 317.05 502 L318.35 502 Q326.6 501.7 331.8 498.05 Q335.95 500.2 341.3 500.2 Q346.75 500.2 351.5 495 L387.4 505.15 Q382.7 513.2 375.65 520.35 L375.6 520.4 Q355.1 540.75 326.25 540.75 Q297.4 540.75 276.95 520.4 L276.9 520.35 Q269.65 512.9 264.9 504.5 L264.5 503.9 Q269.75 500.1 275.6 497.1 L276.4 496.75 Z" fill="#db4242"/></svg>