<svg xmlns="http://www.w3.org/2000/svg" viewBox="0 0 640 640"><path d="M236.15 505.2 L233.05 505.45 L233 505.3 L232.7 504.6 Q228.2 495.25 226.75 485 Q322.8 477.05 422.5 487.35 Q420.7 497 416.2 505.7 L414.6 505.65 Q376.2 502.7 337.55 502.15 Q295.8 501.4 253.9 504.15 L236.5 505.2 L236.15 505.2 Z" fill="#ffffff"/><path d="M233.05 505.45 L236.15 505.2 L236.5 505.2 L253.9 504.15 Q295.8 501.4 337.55 502.15 Q376.2 502.7 414.6 505.65 L416.2 505.7 L415.85 506.2 L415.75 506.35 Q408.7 518.6 400.25 526.6 L399.3 527.45 Q371.15 512.5 336.95 511 L326.65 510.85 Q273.2 508.05 247.7 525.05 L247.55 524.9 L247.5 524.8 Q238 516.8 233.05 505.45 Z M233.35 506 L233.05 505.45 L233.35 506 Z" fill="#351b01"/><path d="M247.7 525.05 Q273.2 508.05 326.65 510.85 L336.95 511 Q371.15 512.5 399.3 527.45 L394.95 531.2 Q365.85 555.05 324.65 555.05 Q283.6 555.1 254.45 531.2 Q250.8 528.2 247.7 525.05 Z" fill="#db4242"/><path d="M223.4 508.3 Q217.3 495.3 216.25 480.85 Q216.05 478.8 217.4 477.25 Q218.75 475.65 220.8 475.5 Q322.75 466.55 428.75 477.95 Q430.8 478.15 432.1 479.8 Q433.4 481.4 433.2 483.45 Q431.6 497.4 425.3 509.8 L424.55 511.25 Q417 524.45 407.9 533.05 L407.3 533.7 L401.3 538.95 L401.3 538.9 Q369.55 565.05 324.65 565.05 Q279.9 565 248.1 538.95 L248.05 538.9 Q243.75 535.3 240.05 531.45 L239.75 531.15 Q231.6 523.7 227.85 516.3 L227.6 515.9 Q225.4 512.55 223.7 509.1 L223.4 508.3 Z M416.2 505.7 Q420.7 497 422.5 487.35 Q322.8 477.05 226.75 485 Q228.2 495.25 232.7 504.6 L233 505.3 L233.05 505.45 L233.35 506 L233.05 505.45 Q238 516.8 247.5 524.8 L247.55 524.9 L247.7 525.05 Q250.8 528.2 254.45 531.2 Q283.6 555.1 324.65 555.05 Q365.85 555.05 394.95 531.2 L399.3 527.45 L400.25 526.6 Q408.7 518.6 415.75 506.35 L415.85 506.2 L416.2 505.7 Z" fill="#663300"/></svg>