<svg xmlns="http://www.w3.org/2000/svg" viewBox="0 0 640 640"><path d="M595.95 305.15 Q402.95 310.7 123.6 107.85 Q101.9 193.55 47.65 286.7 Q42.1 360.9 49 415.85 L49.15 417.3 Q52.1 436.95 68.2 467.8 Q37.15 469.6 21 510.35 L22.3 507.7 Q15.75 526.4 26.7 547.9 Q40.4 574.9 64.4 588.1 Q81 597.05 106.15 583.6 L105.95 583.65 Q115.35 578.35 119.75 574.6 Q140.5 557 150.85 541 Q182.25 557.1 215.05 573.45 L223.2 577.35 Q249.75 589.95 280.5 603.25 L280.55 603.35 L280.6 640 L0 640 L0 0 L640 0 L640 640 L364.25 640 L364.25 639.95 L363.4 639.95 L363.4 603.5 L363.45 603.35 L363.4 603.35 L363.1 603.4 L363.4 603.25 L363.5 603.2 L363.5 603.15 L363.55 603.15 Q365.7 601.9 366.25 601.75 Q396.35 590.6 424.65 577.35 L435.25 572.3 Q465 557.8 492.65 540.95 Q497 550.25 521.6 572.35 Q553.7 601.2 577.8 588.1 Q601.8 574.9 615.5 547.9 Q629.25 520.85 615.35 498.2 Q602.8 477.75 578.9 471.15 L583.05 458.2 Q599.7 406.2 595.95 305.15 Z" fill="#000000"/></svg>