<svg xmlns="http://www.w3.org/2000/svg" viewBox="0 0 640 640"><path d="M578.5 439.85 Q601.65 383.05 610.55 320.95 Q611.1 311.25 611.1 301.25 Q611.1 180.55 525.85 95.25 Q440.55 9.9 319.9 9.9 Q199.25 9.9 113.95 95.25 Q28.6 180.55 28.6 301.25 Q28.6 309.3 29 317.25 L29.05 318.25 Q43.35 396.8 72.9 468.65 L70 469.2 L66.7 469.8 Q38.6 475.45 24.65 498.2 Q10.75 520.85 24.5 547.9 Q38.2 574.9 62.2 588.1 Q86.3 601.2 117.55 574.6 Q139.85 555.65 138.75 542.85 L138.55 541.4 Q201.3 593 276.7 603.25 L276.7 640 L0 640 L0 0 L640 0 L640 640 L359.4 640 L359.45 603.5 L361.4 603.25 Q436.6 593 499.25 541.65 L499.05 543.75 Q498.75 556.3 520.25 574.6 Q551.55 601.2 575.6 588.1 Q599.6 574.9 613.3 547.9 Q627.05 520.85 613.15 498.2 Q599.2 475.45 571.1 469.8 L568.8 469.4 L565.6 468.8 Q572.55 454.55 578.5 439.85 Z" fill="#000000"/></svg>