<svg xmlns="http://www.w3.org/2000/svg" viewBox="0 0 640 640"><path d="M517.55 95.8 L445.95 93.4 Q401.75 93.35 361.9 97.35 Q127.9 129.5 45.35 279.05 Q40.65 406.4 57.2 458.2 L61.4 471.15 Q37.45 477.75 24.95 498.2 Q11.05 520.85 24.8 547.9 Q38.5 574.9 62.45 588.1 Q66.2 590.15 70.1 591.2 Q74.05 592.2 78.15 592.2 Q91.85 592.2 107.7 581.05 Q112.9 577.3 118.4 572.35 Q133.45 558.8 128.6 551.65 Q131.1 554.35 134.6 557.15 Q145.1 565.7 164.3 575.3 Q190.7 588.45 222.6 597.25 Q254.5 606 276.6 604.4 L276.6 639.95 L275.8 639.95 L275.8 640 L0 640 L0 0 L640 0 L640 640 L359.4 640 L359.45 603.35 L359.5 603.25 Q406.35 597.35 441.8 586.8 Q477.2 576.25 493.55 564.4 Q499.3 560.2 501.2 557.2 Q506.2 562.4 514.75 569.9 L520.25 574.6 Q524.6 578.3 528.9 581.35 Q531.2 579.85 551.6 545.9 Q572.45 511.3 581.4 469.3 L571.65 467.8 Q587.7 436.95 590.65 417.3 L590.8 415.85 Q598.65 353.35 590.4 266 L590.45 266 L590.4 265.9 Q538.75 196.85 518.25 95.85 L517.55 95.8 Z M532.85 583.85 Q536.3 586 539.65 587.6 L558.9 592.4 L569.4 590.75 Q572.45 589.7 575.4 588.1 Q599.4 574.9 613.1 547.9 Q626.85 520.85 612.95 498.2 L609.1 491.85 Q602.95 505.1 595.95 517 Q590.25 526.55 584 535.1 Q578.65 542.4 573 549.05 L563.55 559.1 Q549.35 573.4 532.85 583.85 Z" fill="#000000"/></svg>