<svg xmlns="http://www.w3.org/2000/svg" viewBox="0 0 640 640"><path d="M494.15 84.6 L495.95 85.5 L502.95 78.55 Q332.1 -7.6 157.55 69.05 Q341.65 12.1 494.15 84.6 Z M506.1 77.1 L504.3 79.25 L506.15 77.15 L506.15 77.1 L506.1 77.05 L506.1 77.1 Z M518.25 90.9 L519.8 89.35 L519.75 89.35 L514.55 84.5 L487.25 114.8 Q306.5 66.1 143 117.25 L128.75 123.05 Q114.6 128.8 98.45 139.15 Q82.3 149.5 63.95 183.45 Q45.6 217.4 33.9 329.35 L33.05 337.85 Q32 348.9 31.4 359.7 L31.25 362.25 Q28.15 421.55 39.3 481.9 L35.1 485.45 Q29.25 490.95 24.8 498.2 Q10.9 520.85 24.65 547.9 Q38.35 574.9 62.3 588.1 Q72.6 593.7 84.15 592.05 Q94.1 590.65 105.05 583.95 Q110.25 580.7 115.7 576.25 Q172.2 597.9 274.55 602.95 L281.05 603.25 L282.95 603.5 L283 640 L0 640 L0.1 630 L0.15 0 L639.9 0 L639.9 359.7 L639.95 359.7 L640 640 L357 640 L357.1 603.5 L359 603.25 L362.45 603.15 L364.05 603.05 Q466.1 598.15 522.9 576.8 Q528.75 581.55 534.4 584.85 Q546 591.65 556.55 592.35 Q566.55 593 575.55 588.1 Q599.5 574.9 613.2 547.9 Q616.55 541.35 618.25 535.05 Q623.6 515.35 613.05 498.2 Q608.6 490.9 602.7 485.4 L599.05 482.25 Q611.3 425.85 609.15 370.25 Q609.5 348.5 608.95 330.85 Q608.4 314.1 607.1 301.1 Q597.6 206.15 495.25 121.6 L518.25 90.9 Z M125.55 104.85 Q307.55 40.85 481.65 99.6 L488.45 92.85 Q292.7 27.4 125.55 104.85 Z" fill="#000000"/></svg>