<svg xmlns="http://www.w3.org/2000/svg" viewBox="0 0 640 640"><path d="M536.8 176.85 L401.2 109.25 Q367.8 89.9 340.5 109.3 Q335.35 112.15 326.8 117.65 L320.7 121.55 L320.7 23.95 L317.75 24.05 L312.9 24.15 L312.9 121.95 Q280.5 84.9 238.45 109.25 L102.85 176.85 Q71.45 194.5 34.35 181.15 Q28.6 230 28.6 301.25 Q28.6 309.3 30.2 350.4 Q31.75 391.45 44 442.2 Q49.55 465.15 56 472.75 Q35.8 480 24.65 498.2 Q10.75 520.85 24.5 547.9 Q38.2 574.9 62.2 588.1 Q86.3 601.2 117.55 574.6 Q139.85 555.65 138.75 542.85 L138.55 541.4 Q201.3 593 276.7 603.25 L276.7 640 L0 640 L0 0 L640 0 L640 640 L362.95 640 L362.95 603.25 Q437.15 593.15 499.1 543.05 L501.1 541.4 L500.9 542.85 Q499.8 555.65 522.1 574.6 Q542.25 591.75 559.4 592.4 Q568.9 592.75 577.45 588.1 Q601.45 574.9 615.15 547.9 Q628.9 520.85 615 498.2 Q603.85 480 583.65 472.75 Q590.1 465.15 595.65 442.2 Q607.9 391.45 609.45 350.4 Q611.05 309.3 611.05 301.25 Q611.05 230 605.3 181.15 Q595.15 184.8 585.45 186.15 Q560.9 189.5 539.05 178.1 L536.8 176.85 Z" fill="#000000"/></svg>