<svg xmlns="http://www.w3.org/2000/svg" viewBox="0 0 640 640"><path d="M543.85 160.85 Q512.1 96.05 487.6 84.5 Q478.6 93.1 459.15 107.25 Q452.1 95.4 446.85 89.45 Q420.55 113 402 125.4 L395.6 108.2 L364.95 129.2 L366.1 108.85 L340.6 132.75 L338.1 110.85 L320 142.6 L301.9 110.85 L299.4 132.75 L273.9 108.85 L275.05 129.2 L244.45 108.2 L238.05 125.4 Q219.45 113 193.15 89.45 Q187.9 95.4 180.85 107.25 Q161.4 93.1 152.45 84.5 Q127.9 96.05 96.15 160.85 L93.4 148.15 Q67.35 176.85 60.45 250.55 Q55.95 247.05 49.05 243.85 L40.8 299.85 Q32.55 355.45 47.5 428.05 L48.1 432.5 L48.75 437 Q59.1 453.8 70.35 469.2 L70.15 469.2 L66.85 469.8 Q38.75 475.45 24.8 498.2 Q10.9 520.85 24.65 547.9 Q38.35 574.9 62.35 588.1 Q86.4 601.2 117.65 574.6 Q139.95 555.65 138.85 542.85 L138.55 540.85 Q184.95 578.1 241.8 597.7 L242.75 597.95 Q257.85 601.45 273.6 603.5 L280.4 604.35 L280.4 639.95 L0 640 L0 0 L640 0 L640 640 L359.6 639.95 L359.6 604.35 L366.4 603.5 Q382.15 601.45 397.3 597.95 L398.3 597.7 Q453.65 578.55 499.15 542.7 L499.1 543.75 Q498.8 556.3 520.3 574.6 Q551.6 601.2 575.6 588.1 Q599.6 574.9 613.3 547.9 Q616.65 541.3 618.35 535.05 Q623.65 515.35 613.15 498.2 Q599.2 475.45 571.15 469.8 L569.45 469.5 Q580.8 454 591.3 437 L591.9 432.5 L592.5 428.05 Q597.5 396.55 599.6 369.9 Q603.1 325.2 598.45 293.95 L590.95 243.85 Q584.05 247.05 579.55 250.55 Q572.7 176.85 546.6 148.15 L543.85 160.85 Z M619.3 336.4 L619.3 335.85 L619.25 335.8 L618.05 336.7 L619.3 336.4 Z M616.35 392.85 L615.9 394.25 L615.85 394.45 L615.65 395 L615.4 396.05 L615.75 395 L616.75 391.75 L616.35 392.85 Z M22 336.7 L20.75 335.8 L20.7 335.85 L20.7 336.4 L22 336.7 Z M23.65 392.85 L23.25 391.75 L24.3 395 L24.55 395.8 L24.35 395 L24.15 394.45 L24.1 394.25 L23.65 392.85 Z" fill="#000000"/></svg>