<svg xmlns="http://www.w3.org/2000/svg" viewBox="0 0 640 640"><path d="M46.1 239.85 L45.1 244.5 Q24.6 346.5 91.6 519.5 L102.15 528.85 Q137.75 558.6 178.25 576.9 Q188.45 581.55 199 585.4 Q235.8 598.9 276.05 603.5 L276.6 603.6 L276.7 603.6 L276.7 640 L0 640 L0 0 L640 0 L640 640 L363.1 640 L363.1 603.6 L363.2 603.6 L363.75 603.5 Q404 598.9 440.8 585.4 Q451.35 581.55 461.55 576.9 Q502.05 558.6 537.65 528.85 L548.2 519.5 Q612.9 352.5 596.05 251.65 L594.7 244.5 L593.95 240.95 L46.1 239.7 L46.1 239.85 Z" fill="#000000"/><path d="M45.1 244.5 L594.7 244.5" fill="none" stroke="#000000" stroke-width="10.00" stroke-linecap="round" stroke-linejoin="round"/></svg>