<svg xmlns="http://www.w3.org/2000/svg" viewBox="0 0 640 640"><path d="M584.7 273.8 Q449.2 250.05 400.5 98.35 Q430.45 250.35 527.05 269.65 Q385.4 306.45 285.4 273.6 Q163.7 234.85 174.2 93.25 Q154.55 219.65 62.1 271.7 Q59.65 280.55 57.7 289.3 Q50.2 327.6 55.5 367.25 L54.9 364.7 Q60.05 414.05 78.65 454.4 Q81.6 460.85 85 467.2 Q78.5 467.7 70.6 469.2 L67.3 469.8 Q39.2 475.45 25.35 498.2 Q11.45 520.85 25.2 547.9 Q38.85 574.9 62.8 588.1 Q66.75 590.25 70.9 591.35 L69.3 590.95 Q90.9 597.55 117.85 574.6 Q137.4 558 139 546.1 L139.2 546.25 L139.2 546.1 Q145.9 551.1 152.8 555.7 Q209.05 593.1 276.95 603 L280.4 603.45 L280.55 603.45 L280.6 603.45 L280.4 603.5 L280.45 640 L0 640 L0 0 L640 0 L640 640 L359.6 640 L359.65 603.5 L359.45 603.45 L359.65 603.45 Q435.05 593.25 496.25 549.6 L495.45 550.1 L499.35 547.25 L499.4 547.3 L499.45 547.25 Q501.8 558.8 520.35 574.6 Q551.6 601.2 575.65 588.1 Q599.65 574.9 613.3 547.9 Q627.05 520.85 613.15 498.2 Q599.25 475.45 571.15 469.8 L568.85 469.4 Q561.45 467.9 555.25 467.35 Q579.85 421.1 585.65 362.25 Q589.65 321.15 584.55 273.8 L584.7 273.8 Z" fill="#000000"/></svg>