<svg xmlns="http://www.w3.org/2000/svg" viewBox="0 0 640 640"><path d="M542 104.7 Q502.75 151.4 377.8 156.95 Q444.95 116.85 468.15 82.7 Q454.3 102.1 417.85 124.65 Q381.4 147.2 293.35 156.3 Q205.25 165.4 184.6 163.35 Q261.5 130.65 272.9 114.85 Q248.3 125 208.95 142.35 Q169.6 159.65 113.95 207.7 Q58.25 255.7 48.8 296.55 Q45.1 292.3 42.85 288.5 L44.6 333.05 Q44.65 407.4 70 469.2 L66.7 469.8 Q38.6 475.45 24.65 498.2 Q17.7 509.55 17.7 521.95 Q17.65 534.4 24.5 547.9 Q38.2 574.9 62.2 588.1 Q86.3 601.2 117.55 574.6 Q139.85 555.65 138.75 542.85 Q195.35 574.9 270.85 596.35 L274.75 597.55 L274.3 597.95 L274.5 626.6 L274.6 631.4 L274.65 636.15 L274.6 636.15 L274.6 640 L0 640 L0 0 L640 0 L640 640 L361.45 640 L361.45 597.95 L361.4 597.95 L361.1 597.9 L361.45 597.65 Q366.05 596.05 372.45 594.45 Q444.45 574.15 499.05 543.75 Q498.75 556.3 520.25 574.6 Q551.55 601.2 575.6 588.1 Q599.6 574.9 613.3 547.9 Q616.65 541.3 618.35 535.05 Q620.35 527.65 620.1 520.65 Q619.7 508.9 613.15 498.2 Q599.2 475.45 571.1 469.8 L568.95 469 Q579 463.2 598.3 416.4 Q617.5 369.6 608 276.05 Q598.45 182.5 586.5 157.2 Q574.5 131.9 566.55 127.35 Q543.9 147.85 491.45 153 Q537.35 117.4 542 104.7 Z" fill="#000000"/></svg>