<svg xmlns="http://www.w3.org/2000/svg" viewBox="0 0 640 640"><path d="M537.9 91.6 Q488.5 62.3 427.75 66.85 Q367 71.4 345.8 91.75 Q324.6 112.05 321.9 117.6 Q320.15 112.55 301.2 95.45 Q275.05 71.8 211.7 67.05 Q148.35 62.3 98.95 91.6 Q49.55 120.85 29.9 233.45 Q-13.2 498.9 78.25 441.8 Q75.6 464.75 72 467.15 Q68.35 469.5 66.7 469.8 Q38.6 475.45 24.65 498.2 Q10.75 520.85 24.5 547.9 Q38.2 574.9 62.2 588.1 Q86.3 601.2 117.55 574.6 Q139.85 555.65 138.75 542.85 L138.55 541.4 Q201.3 593 276.7 603.25 L276.7 640 L0 640 L0 0 L640 0 L640 640 L359.4 640 L359.45 603.5 L360.15 603.25 Q435.55 593 499.45 541.05 Q499.05 542.65 499.05 543.75 Q498.75 556.3 520.25 574.6 Q540.95 592.2 558.45 592.45 Q566.9 592.3 574.65 588.1 Q598.65 574.9 612.35 547.9 Q626.1 520.85 612.2 498.2 Q598.25 475.45 570.15 469.8 L568.35 469.5 L568.25 469.9 L566.6 469.15 Q556.25 469 557.6 441.8 Q620.05 468.9 616.9 355.9 Q613.75 242.85 599.55 181.25 Q585.3 119.65 537.9 91.6 Z" fill="#000000"/></svg>