<svg xmlns="http://www.w3.org/2000/svg" viewBox="0 0 640 640"><path d="M607.35 404.95 Q617.35 379.8 614.9 331.2 Q613.1 296.3 607.85 264.9 Q576.05 91.05 518.85 78.3 Q191 228.5 101.25 119.55 Q94.3 126.5 88.2 135.05 Q76.6 151.25 63.75 180.25 Q62.15 186.05 56.2 202.45 Q43.65 237.05 40.15 281.35 Q36.55 325.55 34.3 364.15 Q31.95 402.6 48.5 425.2 Q42.75 414 45.7 419.5 Q59.5 446.15 93.4 469.75 Q81.55 466.6 65.9 470.05 Q50.2 473.45 30 490.75 Q27.05 494.2 24.65 498.2 Q10.75 520.85 24.5 547.9 Q38.2 574.9 62.2 588.1 Q86.3 601.2 117.55 574.6 Q131.4 562.8 136.25 553.45 Q163.75 583.9 276.7 603.25 L276.7 640 L0 640 L0 0 L640 0 L640 640 L360.35 640 L360.35 603.4 L361.4 603.25 Q466.55 577.75 499.65 548.5 Q502.65 559.6 520.25 574.6 Q551.55 601.2 575.6 588.1 Q599.6 574.9 613.3 547.9 Q616.65 541.3 618.35 535.05 Q623.65 515.35 613.15 498.2 Q609.15 491.6 603.9 486.4 Q591 473.8 576.85 470.3 Q562.65 466.75 546.1 469.75 Q594.35 436.1 607.35 404.95 Z" fill="#000000"/></svg>