<svg xmlns="http://www.w3.org/2000/svg" viewBox="0 0 640 640"><path d="M607.15 254.9 Q585.1 155.55 498.2 101.3 Q463.35 82.6 420.7 82.6 Q361.35 82.6 317.1 118.85 Q272.75 82.6 213.45 82.6 Q144.75 82.6 96.2 131.15 Q47.65 179.7 47.65 248.4 Q47.65 259.95 49.05 270.95 Q54.7 339.5 48.35 398.2 L50.35 404.85 Q58.35 415.7 88.4 462.35 Q124.8 518.95 107.7 552.25 Q90.6 585.5 80.85 592.4 Q91.85 593.15 107.9 582.1 L117.55 574.6 Q139.85 555.65 138.75 542.85 L138.55 541.4 L138.8 541.6 L138.75 541.4 Q201.4 593 276.75 603.25 L276.75 640 L0 640 L0 0 L640 0 L640 640 L359.4 640 L359.45 603.5 L361.35 603.25 Q436.2 593.05 498.6 542.1 Q499.4 533.55 507.7 514.15 Q519.95 485.4 554.65 460.8 Q575.35 446.05 587 416.9 L593.1 398.4 Q596.45 385.85 598.5 371.3 Q613.3 318.15 608.05 259.5 L607.15 254.9 Z M40.7 480.95 Q31.35 487.75 24.95 498.2 Q11.05 520.85 24.8 547.9 Q31.7 561.5 41.2 571.6 Q88.05 537.85 40.7 480.95 Z M570.3 506.85 Q540.65 529.5 540.55 588.05 L543 589.1 Q556.4 595.5 573.05 589.3 L575.4 588.1 Q599.4 574.9 613.1 547.9 Q626.85 520.85 612.95 498.2 Q607.75 489.7 600.55 483.6 L570.3 506.85 Z" fill="#000000"/></svg>