<svg xmlns="http://www.w3.org/2000/svg" viewBox="0 0 640 640"><path d="M488.45 148.75 L491.65 133 Q489.7 99.8 459 89.4 Q431.6 80 402.35 86.6 Q334.6 102.2 287.25 155.65 Q269.35 175.85 247.3 190 Q239.75 194.85 231.7 199 Q189.95 220.45 142.6 214.3 Q110.8 210.05 95 192.4 Q80.25 175.95 79.35 147.9 L76.25 153.3 L70.9 162.05 Q64.15 180.25 57.4 201.45 Q37.4 264.25 37.4 298.6 Q37.4 325.55 46.15 347.45 Q52.15 362.5 65.4 380.8 L75.7 394.85 Q81.3 402.8 84.65 408.95 Q93.4 425.05 93.4 442.25 Q93.4 451.25 89.2 458.05 Q85.6 463.8 79.55 466.65 L79.4 468.6 Q79.4 484.8 88.45 494.95 Q91.95 498.9 97.7 503 L108.35 510 Q122.15 519.15 128.2 528.4 Q136.45 541.05 137.2 560.9 Q220.8 595.5 268.95 602 L279.85 603.25 L280.5 606.25 L280.55 640 L0 640 L0 0 L640 0 L640 640 L364.2 640 L364.2 639.95 L363.35 639.95 L363.35 603.5 L365.55 602.05 Q455.7 580.15 507.45 559.1 Q513.35 565 521.55 572.35 Q553.65 601.2 577.75 588.1 Q601.75 574.9 615.45 547.9 Q622.35 534.4 622.3 521.95 Q622.25 509.55 615.3 498.2 Q611.65 492.25 607.05 487.45 L606 488 L605.5 488.3 Q590 496.5 576.2 496.5 Q554.3 496.5 547.15 476.5 Q544.2 468.2 544.2 453.35 L544.2 453.25 L544.2 453 Q544.35 434.75 565.9 401 L588.05 356.4 L593.15 346.25 Q618.55 271.1 609.65 229.9 Q600.7 188.7 586.6 174.45 Q572.5 160.15 559.2 151.75 Q529.35 138.85 508.65 146.85 Q501.8 149.45 497.4 153.95 L488.45 148.75 Z M64.1 464 L64.05 463.8 L63.35 464 L63.9 464 L64.1 464 Z M46.8 474.75 Q31.9 484.45 22.15 507.5 L20.95 510.35 L22.25 507.7 Q19.8 514.7 19.8 522.1 Q19.8 534.45 26.65 547.9 Q40.35 574.9 64.35 588.1 Q81.35 597.3 107.35 582.9 L99.15 586.9 Q115.3 578.35 119.7 574.6 Q125.45 569.7 130.45 564.95 Q127.05 558.75 121.35 554.25 Q115.9 549.95 107.15 546.15 Q103.7 544.65 90.85 539.85 Q69.3 531.85 60.3 522.75 Q46.4 508.8 46.4 483 Q46.4 479.2 46.8 474.75 Z" fill="#000000"/></svg>