<svg xmlns="http://www.w3.org/2000/svg" viewBox="0 0 640 640"><path d="M607.9 288.25 Q357.15 298.05 316.1 87.05 Q268.45 293.1 28.85 288.65 Q28.6 294.9 28.6 301.25 Q28.6 309.3 29 317.25 L29.05 318.25 Q37.95 367.15 52.75 413.45 Q61.65 441.35 72.7 468.3 L71.1 468.55 L69.75 468.8 L66.55 469.4 L68.6 475.6 Q73.3 490.3 79 503.35 L83.95 514 L90.25 525.65 Q104.45 550.2 123.4 567 Q136.6 553.6 136.35 543.75 L136.15 541.65 Q135.9 540.1 135.25 538.6 L138.55 541.4 Q149.7 550.55 161.25 558.4 Q214.65 594.8 276.7 603.25 L276.7 640 L0 640 L0 0 L640 0 L640 640 L359.4 640 L359.45 603.5 L361.4 603.25 Q436.6 593 499.25 541.65 L499.05 543.75 Q498.8 553.6 512 567 Q531.25 549.9 547.2 523.6 L551.35 516.4 L559 501.7 Q565.8 487.75 571.9 471.75 L568.8 469.4 L565.6 468.8 Q599.35 399.05 610.55 320.95 Q611.1 311.25 611.1 301.25 L610.85 288.25 L607.9 288.25 Z M60.75 549.45 Q55.55 546.45 50.75 543 L47.15 540.3 Q39.55 534.35 32.95 527.15 L28.95 522.55 Q23 515.45 17.85 507.2 Q11 526.15 22.1 547.9 Q35.8 574.9 59.8 588.1 Q83.85 601.2 115.15 574.6 L122.7 567.75 Q103 566 86.2 560.7 Q72.5 556.3 60.75 549.45 Z M618.35 535.05 Q622.3 520.4 617.5 507.2 Q613.1 514.3 608 520.6 L601.7 527.7 Q596.9 532.55 591.65 536.9 L588.2 539.65 Q580.9 545.15 572.65 549.65 Q561.75 555.45 549.35 559.5 Q532.25 565 512.15 567.15 L520.25 574.6 Q551.55 601.2 575.6 588.1 Q599.6 574.9 613.3 547.9 Q616.65 541.3 618.35 535.05 Z M613.15 498.2 L617.5 507.2 Q615.85 502.6 613.15 498.2 Z" fill="#000000"/></svg>